<?xml version="1.0" encoding="UTF-8" standalone="no"?>
<svg
   xmlns:dc="http://purl.org/dc/elements/1.1/"
   xmlns:cc="http://creativecommons.org/ns#"
   xmlns:rdf="http://www.w3.org/1999/02/22-rdf-syntax-ns#"
   xmlns:svg="http://www.w3.org/2000/svg"
   xmlns="http://www.w3.org/2000/svg"
   xmlns:sodipodi="http://sodipodi.sourceforge.net/DTD/sodipodi-0.dtd"
   xmlns:inkscape="http://www.inkscape.org/namespaces/inkscape"
   inkscape:export-ydpi="576"
   inkscape:export-xdpi="576"
   inkscape:export-filename="E:\Project\1 - Carlos Project\012 - School And Education\Send\3 - Flat\4 - Sport.png"
   width="64pt"
   height="64pt"
   viewBox="0 0 22.577778 22.577778"
   version="1.1"
   id="svg831"
   inkscape:version="1.0 (4035a4fb49, 2020-05-01)"
   sodipodi:docname="4 - Sport.svg">
  <defs
     id="defs825">
    <pattern
       id="EMFhbasepattern"
       patternUnits="userSpaceOnUse"
       width="6"
       height="6"
       x="0"
       y="0" />
    <pattern
       id="EMFhbasepattern-9"
       patternUnits="userSpaceOnUse"
       width="6"
       height="6"
       x="0"
       y="0" />
    <pattern
       id="EMFhbasepattern-0"
       patternUnits="userSpaceOnUse"
       width="6"
       height="6"
       x="0"
       y="0" />
    <pattern
       id="EMFhbasepattern-7"
       patternUnits="userSpaceOnUse"
       width="6"
       height="6"
       x="0"
       y="0" />
    <pattern
       id="EMFhbasepattern-2"
       patternUnits="userSpaceOnUse"
       width="6"
       height="6"
       x="0"
       y="0" />
    <pattern
       id="EMFhbasepattern-98"
       patternUnits="userSpaceOnUse"
       width="6"
       height="6"
       x="0"
       y="0" />
    <pattern
       id="EMFhbasepattern-6"
       patternUnits="userSpaceOnUse"
       width="6"
       height="6"
       x="0"
       y="0" />
    <pattern
       id="EMFhbasepattern-01"
       patternUnits="userSpaceOnUse"
       width="6"
       height="6"
       x="0"
       y="0" />
    <pattern
       id="EMFhbasepattern-07"
       patternUnits="userSpaceOnUse"
       width="6"
       height="6"
       x="0"
       y="0" />
    <pattern
       id="EMFhbasepattern-8"
       patternUnits="userSpaceOnUse"
       width="6"
       height="6"
       x="0"
       y="0" />
    <pattern
       id="EMFhbasepattern-4"
       patternUnits="userSpaceOnUse"
       width="6"
       height="6"
       x="0"
       y="0" />
    <pattern
       id="EMFhbasepattern-40"
       patternUnits="userSpaceOnUse"
       width="6"
       height="6"
       x="0"
       y="0" />
    <pattern
       id="EMFhbasepattern-08"
       patternUnits="userSpaceOnUse"
       width="6"
       height="6"
       x="0"
       y="0" />
    <pattern
       id="EMFhbasepattern-04"
       patternUnits="userSpaceOnUse"
       width="6"
       height="6"
       x="0"
       y="0" />
    <pattern
       id="EMFhbasepattern-014"
       patternUnits="userSpaceOnUse"
       width="6"
       height="6"
       x="0"
       y="0" />
    <pattern
       id="EMFhbasepattern-27"
       patternUnits="userSpaceOnUse"
       width="6"
       height="6"
       x="0"
       y="0" />
    <pattern
       id="EMFhbasepattern-09"
       patternUnits="userSpaceOnUse"
       width="6"
       height="6"
       x="0"
       y="0" />
    <pattern
       id="EMFhbasepattern-5"
       patternUnits="userSpaceOnUse"
       width="6"
       height="6"
       x="0"
       y="0" />
    <pattern
       id="EMFhbasepattern-018"
       patternUnits="userSpaceOnUse"
       width="6"
       height="6"
       x="0"
       y="0" />
  </defs>
  <sodipodi:namedview
     id="base"
     pagecolor="#ffffff"
     bordercolor="#666666"
     borderopacity="1.0"
     inkscape:pageopacity="0.0"
     inkscape:pageshadow="2"
     inkscape:zoom="5.671875"
     inkscape:cx="42.666667"
     inkscape:cy="42.666667"
     inkscape:document-units="pt"
     inkscape:current-layer="layer1"
     showgrid="false"
     units="pt"
     inkscape:window-width="1366"
     inkscape:window-height="716"
     inkscape:window-x="-8"
     inkscape:window-y="-8"
     inkscape:window-maximized="1"
     inkscape:pagecheckerboard="true"
     inkscape:showpageshadow="false"
     inkscape:object-paths="true"
     inkscape:snap-intersection-paths="true"
     inkscape:snap-smooth-nodes="true"
     inkscape:snap-midpoints="true"
     showguides="false"
     inkscape:snap-bbox="true"
     inkscape:bbox-nodes="true"
     inkscape:snap-nodes="false"
     inkscape:snap-global="true"
     inkscape:document-rotation="0">
    <inkscape:grid
       type="xygrid"
       id="grid1378" />
    <sodipodi:guide
       position="0.97013831,21.607643"
       orientation="78.000048,0"
       id="guide1380"
       inkscape:locked="false" />
    <sodipodi:guide
       position="0.97013831,0.97013129"
       orientation="0,78.000005"
       id="guide1382"
       inkscape:locked="false" />
    <sodipodi:guide
       position="21.607639,0.97013129"
       orientation="-78.000048,0"
       id="guide1384"
       inkscape:locked="false" />
    <sodipodi:guide
       position="21.607639,21.607643"
       orientation="0,-78.000005"
       id="guide1386"
       inkscape:locked="false" />
  </sodipodi:namedview>
  <metadata
     id="metadata828">
    <rdf:RDF>
      <cc:Work
         rdf:about="">
        <dc:format>image/svg+xml</dc:format>
        <dc:type
           rdf:resource="http://purl.org/dc/dcmitype/StillImage" />
        <dc:title />
      </cc:Work>
    </rdf:RDF>
  </metadata>
  <g
     inkscape:label="Icon"
     inkscape:groupmode="layer"
     id="layer1"
     transform="translate(0,-274.42223)">
    <g
       id="g1186"
       style="display:inline"
       transform="matrix(1.2761861,0,0,1.2761861,-38.592461,-43.583521)">
      <path
         style="color:#000000;font-style:normal;font-variant:normal;font-weight:normal;font-stretch:normal;font-size:medium;line-height:normal;font-family:sans-serif;font-variant-ligatures:normal;font-variant-position:normal;font-variant-caps:normal;font-variant-numeric:normal;font-variant-alternates:normal;font-variant-east-asian:normal;font-feature-settings:normal;font-variation-settings:normal;text-indent:0;text-align:start;text-decoration:none;text-decoration-line:none;text-decoration-style:solid;text-decoration-color:#000000;letter-spacing:normal;word-spacing:normal;text-transform:none;writing-mode:lr-tb;direction:ltr;text-orientation:mixed;dominant-baseline:auto;baseline-shift:baseline;text-anchor:start;white-space:normal;shape-padding:0;shape-margin:0;inline-size:0;clip-rule:nonzero;display:inline;overflow:visible;visibility:visible;isolation:auto;mix-blend-mode:normal;color-interpolation:sRGB;color-interpolation-filters:linearRGB;solid-color:#000000;solid-opacity:1;vector-effect:none;fill:#d0e2ee;fill-opacity:1;fill-rule:nonzero;stroke:none;stroke-width:0.529167;stroke-linecap:round;stroke-linejoin:round;stroke-miterlimit:4;stroke-dasharray:none;stroke-dashoffset:0;stroke-opacity:1;color-rendering:auto;image-rendering:auto;shape-rendering:auto;text-rendering:auto;enable-background:accumulate;stop-color:#000000"
         d="m 36.143229,252.25391 c -3.026889,0.20386 -5.14258,2.43428 -5.142578,5.14453 7e-6,2.8463 2.313858,5.1582 5.160157,5.1582 2.846307,0 5.16015,-2.3119 5.160156,-5.1582 6e-6,-2.71221 -2.139728,-5.14453 -5.160156,-5.14453 a 0.26460996,0.26460996 0 0 0 -0.01758,0 z"
         id="path829" />
      <path
         id="path1150"
         style="color:#000000;font-style:normal;font-variant:normal;font-weight:normal;font-stretch:normal;font-size:medium;line-height:normal;font-family:sans-serif;font-variant-ligatures:normal;font-variant-position:normal;font-variant-caps:normal;font-variant-numeric:normal;font-variant-alternates:normal;font-variant-east-asian:normal;font-feature-settings:normal;font-variation-settings:normal;text-indent:0;text-align:start;text-decoration:none;text-decoration-line:none;text-decoration-style:solid;text-decoration-color:#000000;letter-spacing:normal;word-spacing:normal;text-transform:none;writing-mode:lr-tb;direction:ltr;text-orientation:mixed;dominant-baseline:auto;baseline-shift:baseline;text-anchor:start;white-space:normal;shape-padding:0;shape-margin:0;inline-size:0;clip-rule:nonzero;display:inline;overflow:visible;visibility:visible;isolation:auto;mix-blend-mode:normal;color-interpolation:sRGB;color-interpolation-filters:linearRGB;solid-color:#000000;solid-opacity:1;vector-effect:none;fill:#aabfd0;fill-opacity:1;fill-rule:nonzero;stroke:none;stroke-width:2;stroke-linecap:round;stroke-linejoin:round;stroke-miterlimit:4;stroke-dasharray:none;stroke-dashoffset:0;stroke-opacity:1;color-rendering:auto;image-rendering:auto;shape-rendering:auto;text-rendering:auto;enable-background:accumulate;stop-color:#000000"
         d="m 139.47656,-104.92383 c -4.452,4.56874 -7.20703,10.797267 -7.20703,17.638674 0,2.884384 1.07402,5.426145 1.9707,8.017578 -3.162,2.68286 -5.55078,6.249188 -5.55078,10.689453 0,0.233486 0.0241,0.460457 0.0352,0.691406 2.43012,1.088431 5.11348,1.707031 7.94531,1.707031 10.7577,0 19.50389,-8.738424 19.50391,-19.496093 2e-5,-9.388263 -6.78604,-17.883819 -16.69727,-19.248049 z"
         transform="matrix(0.26458334,0,0,0.26458334,0,280.06666)" />
      <path
         id="path835"
         style="color:#000000;font-style:normal;font-variant:normal;font-weight:normal;font-stretch:normal;font-size:medium;line-height:normal;font-family:sans-serif;font-variant-ligatures:normal;font-variant-position:normal;font-variant-caps:normal;font-variant-numeric:normal;font-variant-alternates:normal;font-variant-east-asian:normal;font-feature-settings:normal;font-variation-settings:normal;text-indent:0;text-align:start;text-decoration:none;text-decoration-line:none;text-decoration-style:solid;text-decoration-color:#000000;letter-spacing:normal;word-spacing:normal;text-transform:none;writing-mode:lr-tb;direction:ltr;text-orientation:mixed;dominant-baseline:auto;baseline-shift:baseline;text-anchor:start;white-space:normal;shape-padding:0;shape-margin:0;inline-size:0;clip-rule:nonzero;display:inline;overflow:visible;visibility:visible;isolation:auto;mix-blend-mode:normal;color-interpolation:sRGB;color-interpolation-filters:linearRGB;solid-color:#000000;solid-opacity:1;vector-effect:none;fill:#3a4d5c;fill-opacity:1;fill-rule:nonzero;stroke:none;stroke-width:0.529167;stroke-linecap:round;stroke-linejoin:round;stroke-miterlimit:4;stroke-dasharray:none;stroke-dashoffset:0;stroke-opacity:1;color-rendering:auto;image-rendering:auto;shape-rendering:auto;text-rendering:auto;enable-background:accumulate;stop-color:#000000"
         d="m 36.143015,252.25389 c -0.609295,0.041 -1.179179,0.16753 -1.704805,0.36018 v 0.74517 a 0.26460945,0.26460945 0 0 0 0.136424,0.23255 l 1.318784,0.71882 v 1.34204 l -1.188558,0.6475 -1.169438,-0.67489 0.03566,-1.50017 a 0.26460945,0.26460945 0 0 0 -0.130742,-0.23668 l -0.6165,-0.35553 c -0.913813,0.75748 -1.53004,1.79498 -1.740461,2.96726 l 0.636137,0.3669 a 0.26460945,0.26460945 0 0 0 0.269233,-0.002 l 1.283126,-0.78187 1.166339,0.67541 v 1.28003 l -1.16789,0.67438 -1.281575,-0.78135 a 0.26460945,0.26460945 0 0 0 -0.120923,-0.0393 v 5.2e-4 a 0.26460945,0.26460945 0 0 0 -0.14831,0.0346 l -0.63562,0.3669 c 0.208887,1.18704 0.822821,2.23303 1.696021,2.99258 l 0.660423,-0.38085 a 0.26460945,0.26460945 0 0 0 0.130742,-0.23616 l -0.03566,-1.49914 1.169438,-0.67592 1.188558,0.6475 v 1.34204 l -1.318784,0.71882 a 0.26460945,0.26460945 0 0 0 -0.136424,0.23254 v 0.81959 c 0.539662,0.19174 1.117526,0.30127 1.722374,0.30127 0.602718,0 1.179155,-0.10875 1.717209,-0.2992 v -0.82166 a 0.26460945,0.26460945 0 0 0 -0.139009,-0.23254 l -1.316199,-0.71779 v -1.3441 l 1.187005,-0.64699 1.169956,0.67748 -0.03669,1.4981 a 0.26460945,0.26460945 0 0 0 0.132808,0.23616 l 0.663009,0.38344 c 0.873807,-0.7589 1.488781,-1.8043 1.698604,-2.99104 l -0.642856,-0.37052 a 0.26460945,0.26460945 0 0 0 -0.122989,-0.0351 0.26460945,0.26460945 0 0 0 -0.146761,0.0388 l -1.280542,0.78083 -1.166336,-0.67282 v -1.28261 l 1.164786,-0.67335 1.282092,0.78187 a 0.26460945,0.26460945 0 0 0 0.26975,0.002 l 0.643374,-0.37052 c -0.207158,-1.16508 -0.806685,-2.22684 -1.692404,-2.99672 l -0.671793,0.39068 a 0.26460945,0.26460945 0 0 0 -0.130742,0.23461 l 0.03721,1.49965 -1.170472,0.67592 -1.187005,-0.64698 v -1.34411 l 1.316199,-0.71778 a 0.26460945,0.26460945 0 0 0 0.139009,-0.23255 v -0.82217 c -0.529428,-0.18198 -1.104905,-0.28319 -1.717209,-0.28319 a 0.26460996,0.26460996 0 0 0 -0.01757,0 z" />
      <path
         id="path1147"
         style="color:#000000;font-style:normal;font-variant:normal;font-weight:normal;font-stretch:normal;font-size:medium;line-height:normal;font-family:sans-serif;font-variant-ligatures:normal;font-variant-position:normal;font-variant-caps:normal;font-variant-numeric:normal;font-variant-alternates:normal;font-variant-east-asian:normal;font-feature-settings:normal;font-variation-settings:normal;text-indent:0;text-align:start;text-decoration:none;text-decoration-line:none;text-decoration-style:solid;text-decoration-color:#000000;letter-spacing:normal;word-spacing:normal;text-transform:none;writing-mode:lr-tb;direction:ltr;text-orientation:mixed;dominant-baseline:auto;baseline-shift:baseline;text-anchor:start;white-space:normal;shape-padding:0;shape-margin:0;inline-size:0;clip-rule:nonzero;display:inline;overflow:visible;visibility:visible;isolation:auto;mix-blend-mode:normal;color-interpolation:sRGB;color-interpolation-filters:linearRGB;solid-color:#000000;solid-opacity:1;vector-effect:none;fill:#143441;fill-opacity:1;fill-rule:nonzero;stroke:none;stroke-width:2;stroke-linecap:round;stroke-linejoin:round;stroke-miterlimit:4;stroke-dasharray:none;stroke-dashoffset:0;stroke-opacity:1;color-rendering:auto;image-rendering:auto;shape-rendering:auto;text-rendering:auto;enable-background:accumulate;stop-color:#000000"
         d="m 36.900073,252.30918 c -0.524097,0.5386 -0.958934,1.16421 -1.280025,1.8526 l 0.273371,0.14883 v 1.34204 l -0.839227,0.45733 c -0.03682,0.28279 -0.05788,0.57011 -0.05788,0.86248 0,0.69128 0.232429,1.30843 0.452687,1.92805 l 0.444418,0.24185 v 1.34203 l -1.318784,0.71882 a 0.26460945,0.26460945 0 0 0 -0.136425,0.23255 v 0.81958 c 0.53966,0.19174 1.117526,0.30128 1.722374,0.30128 0.602718,0 1.179156,-0.10876 1.71721,-0.29921 v -0.82165 a 0.26460945,0.26460945 0 0 0 -0.13901,-0.23255 l -1.316199,-0.71778 v -1.34411 l 1.187006,-0.64699 1.169956,0.67748 -0.03669,1.4981 a 0.26460945,0.26460945 0 0 0 0.132807,0.23616 l 0.663009,0.38344 c 0.873808,-0.7589 1.488782,-1.80429 1.698604,-2.99103 l -0.642855,-0.37052 a 0.26460945,0.26460945 0 0 0 -0.122989,-0.0351 0.26460945,0.26460945 0 0 0 -0.146762,0.0388 l -1.280541,0.78083 -1.166336,-0.67283 v -1.28261 l 1.164785,-0.67334 1.282092,0.78186 a 0.26460945,0.26460945 0 0 0 0.269751,0.002 l 0.643374,-0.37052 c -0.207159,-1.16508 -0.806686,-2.22684 -1.692405,-2.99672 l -0.671793,0.39067 a 0.26460945,0.26460945 0 0 0 -0.130741,0.23461 l 0.03721,1.49965 -1.170471,0.67593 -1.187006,-0.64699 v -1.3441 l 1.316199,-0.71779 a 0.26460945,0.26460945 0 0 0 0.13901,-0.23254 v -0.82217 c -0.310179,-0.10662 -0.637781,-0.18135 -0.977721,-0.22841 z" />
      <path
         style="color:#000000;font-style:normal;font-variant:normal;font-weight:normal;font-stretch:normal;font-size:medium;line-height:normal;font-family:sans-serif;font-variant-ligatures:normal;font-variant-position:normal;font-variant-caps:normal;font-variant-numeric:normal;font-variant-alternates:normal;font-variant-east-asian:normal;font-feature-settings:normal;font-variation-settings:normal;text-indent:0;text-align:start;text-decoration:none;text-decoration-line:none;text-decoration-style:solid;text-decoration-color:#000000;letter-spacing:normal;word-spacing:normal;text-transform:none;writing-mode:lr-tb;direction:ltr;text-orientation:mixed;dominant-baseline:auto;baseline-shift:baseline;text-anchor:start;white-space:normal;shape-padding:0;shape-margin:0;inline-size:0;clip-rule:nonzero;display:inline;overflow:visible;visibility:visible;isolation:auto;mix-blend-mode:normal;color-interpolation:sRGB;color-interpolation-filters:linearRGB;solid-color:#000000;solid-opacity:1;vector-effect:none;fill:#ff7247;fill-opacity:1;fill-rule:nonzero;stroke:none;stroke-width:0.529167;stroke-linecap:round;stroke-linejoin:round;stroke-miterlimit:4;stroke-dasharray:none;stroke-dashoffset:0;stroke-opacity:1;color-rendering:auto;image-rendering:auto;shape-rendering:auto;text-rendering:auto;enable-background:accumulate;stop-color:#000000"
         d="m 41.691406,251.49219 c -3.023173,0 -5.478515,2.45729 -5.478515,5.48047 0,1.02604 0.281758,1.98698 0.773437,2.80859 a 0.26460996,0.26460996 0 0 0 0.06641,0.0762 l 3.091797,2.35352 a 0.26460996,0.26460996 0 0 0 0.0918,0.0449 c 0.464008,0.1276 0.951184,0.19531 1.455078,0.19531 3.023174,0 5.480469,-2.45534 5.480469,-5.47851 0,-3.02318 -2.457295,-5.48047 -5.480469,-5.48047 z"
         id="path919" />
      <path
         id="path925"
         style="color:#000000;font-style:normal;font-variant:normal;font-weight:normal;font-stretch:normal;font-size:medium;line-height:normal;font-family:sans-serif;font-variant-ligatures:normal;font-variant-position:normal;font-variant-caps:normal;font-variant-numeric:normal;font-variant-alternates:normal;font-variant-east-asian:normal;font-feature-settings:normal;font-variation-settings:normal;text-indent:0;text-align:start;text-decoration:none;text-decoration-line:none;text-decoration-style:solid;text-decoration-color:#000000;letter-spacing:normal;word-spacing:normal;text-transform:none;writing-mode:lr-tb;direction:ltr;text-orientation:mixed;dominant-baseline:auto;baseline-shift:baseline;text-anchor:start;white-space:normal;shape-padding:0;shape-margin:0;inline-size:0;clip-rule:nonzero;display:inline;overflow:visible;visibility:visible;isolation:auto;mix-blend-mode:normal;color-interpolation:sRGB;color-interpolation-filters:linearRGB;solid-color:#000000;solid-opacity:1;vector-effect:none;fill:#ce4b27;fill-opacity:1;fill-rule:nonzero;stroke:none;stroke-width:2;stroke-linecap:round;stroke-linejoin:round;stroke-miterlimit:4;stroke-dasharray:none;stroke-dashoffset:0;stroke-opacity:1;color-rendering:auto;image-rendering:auto;shape-rendering:auto;text-rendering:auto;enable-background:accumulate;stop-color:#000000"
         d="m 157.57422,-107.99805 c -0.33414,0 -0.66581,0.01 -0.9961,0.0254 v 11.466801 c -1.88411,-0.104894 -3.14959,-0.523702 -5.04296,-1.623047 -2.53858,-1.638728 -5.55195,-3.455874 -8.14258,-3.726564 a 1.0001006,1.0001006 0 0 0 -0.008,0 l -0.46875,-0.0488 c -0.57607,0.57796 -1.1043,1.19952 -1.60938,1.8418 l 1.87305,0.191406 c 1.74266,0.182173 4.83942,1.848186 7.31445,3.447266 a 1.0001006,1.0001006 0 0 0 0.0371,0.02344 c 2.09288,1.215189 3.80454,1.789296 6.04687,1.914063 v 6.197266 h -19.68554 c -0.0159,0.332856 -0.0254,0.667151 -0.0254,1.003906 0,0.335188 0.0194,0.666716 0.0352,0.998047 h 19.67578 v 6.197265 c -2.24233,0.124767 -3.95399,0.698874 -6.04687,1.914063 a 1.0001006,1.0001006 0 0 0 -0.0371,0.03125 c -2.47503,1.59908 -5.57179,3.257355 -7.31445,3.439453 l -0.82422,0.08594 2.21094,1.683594 c 2.2981,-0.589805 4.80469,-2.114764 6.96875,-3.511719 1.89337,-1.099345 3.15885,-1.5162 5.04296,-1.621093 v 11.457031 c 0.33089,0.01567 0.66117,0.0332 0.9961,0.0332 0.33675,0 0.67105,-0.0095 1.0039,-0.02539 v -11.464843 c 1.8814,0.105648 3.1502,0.523229 5.04102,1.621093 2.53391,1.635704 5.54148,3.452648 8.12891,3.728516 l 0.47851,0.05859 c 0.57081,-0.571509 1.09635,-1.18571 1.59766,-1.820313 l -1.83399,-0.224609 a 1.0001006,1.0001006 0 0 0 -0.0215,0 c -1.74266,-0.182173 -4.83356,-1.840373 -7.30859,-3.439453 a 1.0001006,1.0001006 0 0 0 -0.0371,-0.03125 c -2.09039,-1.213745 -3.80508,-1.788375 -6.04493,-1.914063 v -6.197265 h 19.6836 c 0.0157,-0.330327 0.0254,-0.663871 0.0254,-0.998047 0,-0.336755 -0.009,-0.67105 -0.0254,-1.003906 h -19.6836 v -6.197266 c 2.23985,-0.125688 3.95454,-0.700319 6.04493,-1.914063 a 1.0001006,1.0001006 0 0 0 0.0371,-0.02344 c 2.47495,-1.599269 5.56593,-3.265168 7.30859,-3.447266 a 1.0001006,1.0001006 0 0 0 0.0215,0 l 1.83008,-0.224603 c -0.50027,-0.63322 -1.02431,-1.24599 -1.59375,-1.81641 l -0.46484,0.0566 c -2.59063,0.27062 -5.604,2.087833 -8.14258,3.726561 -1.89082,1.097864 -3.15962,1.517398 -5.04102,1.623047 v -11.466798 c -0.33285,-0.0159 -0.66715,-0.0254 -1.0039,-0.0254 z"
         transform="matrix(0.26458334,0,0,0.26458334,0,280.06666)" />
      <path
         id="path1161"
         style="color:#000000;font-style:normal;font-variant:normal;font-weight:normal;font-stretch:normal;font-size:medium;line-height:normal;font-family:sans-serif;font-variant-ligatures:normal;font-variant-position:normal;font-variant-caps:normal;font-variant-numeric:normal;font-variant-alternates:normal;font-variant-east-asian:normal;font-feature-settings:normal;font-variation-settings:normal;text-indent:0;text-align:start;text-decoration:none;text-decoration-line:none;text-decoration-style:solid;text-decoration-color:#000000;letter-spacing:normal;word-spacing:normal;text-transform:none;writing-mode:lr-tb;direction:ltr;text-orientation:mixed;dominant-baseline:auto;baseline-shift:baseline;text-anchor:start;white-space:normal;shape-padding:0;shape-margin:0;inline-size:0;clip-rule:nonzero;display:inline;overflow:visible;visibility:visible;isolation:auto;mix-blend-mode:normal;color-interpolation:sRGB;color-interpolation-filters:linearRGB;solid-color:#000000;solid-opacity:1;vector-effect:none;fill:#ce4b27;fill-opacity:1;fill-rule:nonzero;stroke:none;stroke-width:1.88705;stroke-linecap:round;stroke-linejoin:round;stroke-miterlimit:4;stroke-dasharray:none;stroke-dashoffset:0;stroke-opacity:1;color-rendering:auto;image-rendering:auto;shape-rendering:auto;text-rendering:auto;enable-background:accumulate;stop-color:#000000"
         d="m 156.31246,-68.466797 c 0,-7.349102 -5.99073,-13.330078 -13.33984,-13.330078 h 4e-5 c -1.79051,0 -3.49287,0.368062 -5.05469,1.011719 0.47828,1.44786 1.1029,2.828296 1.87305,4.115234 0.064,0.111529 0.14886,0.209675 0.25,0.289063 l 11.68554,8.894531 c 0.10372,0.07873 0.22182,0.136455 0.34766,0.169922 1.34554,0.370017 2.74402,0.605139 4.18164,0.695312 z"
         transform="matrix(0.26458334,0,0,0.26458334,0,280.06666)"
         sodipodi:nodetypes="cccccccccc" />
      <path
         style="color:#000000;font-style:normal;font-variant:normal;font-weight:normal;font-stretch:normal;font-size:medium;line-height:normal;font-family:sans-serif;font-variant-ligatures:normal;font-variant-position:normal;font-variant-caps:normal;font-variant-numeric:normal;font-variant-alternates:normal;font-variant-east-asian:normal;font-feature-settings:normal;font-variation-settings:normal;text-indent:0;text-align:start;text-decoration:none;text-decoration-line:none;text-decoration-style:solid;text-decoration-color:#000000;letter-spacing:normal;word-spacing:normal;text-transform:none;writing-mode:lr-tb;direction:ltr;text-orientation:mixed;dominant-baseline:auto;baseline-shift:baseline;text-anchor:start;white-space:normal;shape-padding:0;shape-margin:0;inline-size:0;clip-rule:nonzero;display:inline;overflow:visible;visibility:visible;isolation:auto;mix-blend-mode:normal;color-interpolation:sRGB;color-interpolation-filters:linearRGB;solid-color:#000000;solid-opacity:1;vector-effect:none;fill:#9ccc65;fill-opacity:1;fill-rule:nonzero;stroke:none;stroke-width:0.529167;stroke-linecap:round;stroke-linejoin:round;stroke-miterlimit:4;stroke-dasharray:none;stroke-dashoffset:0;stroke-opacity:1;color-rendering:auto;image-rendering:auto;shape-rendering:auto;text-rendering:auto;enable-background:accumulate;stop-color:#000000"
         d="m 35.265625,261.92188 c 0,-1.45812 1.188364,-2.64454 2.646484,-2.64454 1.45812,0 2.646484,1.18642 2.646484,2.64454 0,1.45811 -1.188364,2.64648 -2.646484,2.64648 -1.45812,0 -2.646484,-1.18837 -2.646484,-2.64648 z"
         id="path823" />
      <path
         id="path961"
         style="color:#000000;font-style:normal;font-variant:normal;font-weight:normal;font-stretch:normal;font-size:medium;line-height:normal;font-family:sans-serif;font-variant-ligatures:normal;font-variant-position:normal;font-variant-caps:normal;font-variant-numeric:normal;font-variant-alternates:normal;font-variant-east-asian:normal;font-feature-settings:normal;font-variation-settings:normal;text-indent:0;text-align:start;text-decoration:none;text-decoration-line:none;text-decoration-style:solid;text-decoration-color:#000000;letter-spacing:normal;word-spacing:normal;text-transform:none;writing-mode:lr-tb;direction:ltr;text-orientation:mixed;dominant-baseline:auto;baseline-shift:baseline;text-anchor:start;white-space:normal;shape-padding:0;shape-margin:0;inline-size:0;clip-rule:nonzero;display:inline;overflow:visible;visibility:visible;isolation:auto;mix-blend-mode:normal;color-interpolation:sRGB;color-interpolation-filters:linearRGB;solid-color:#000000;solid-opacity:1;vector-effect:none;fill:#e4ed97;fill-opacity:1;fill-rule:nonzero;stroke:none;stroke-width:2;stroke-linecap:round;stroke-linejoin:round;stroke-miterlimit:4;stroke-dasharray:none;stroke-dashoffset:0;stroke-opacity:1;color-rendering:auto;image-rendering:auto;shape-rendering:auto;text-rendering:auto;enable-background:accumulate;stop-color:#000000"
         d="m 151.25195,-74.601562 -0.48437,0.0293 c -1.3552,0 -2.65869,0.420013 -3.6836,1.166016 -1.0249,0.746041 -1.80078,1.881164 -1.80078,3.226562 0,0.643087 -0.17013,1.369533 -0.48828,1.84375 -0.31816,0.474218 -0.68242,0.761719 -1.50586,0.761719 -0.82343,0 -1.19356,-0.287501 -1.51172,-0.761719 -0.31816,-0.474217 -0.48828,-1.200663 -0.48828,-1.84375 0,-1.322532 -0.72709,-2.472735 -1.74218,-3.226562 -1.01145,-0.751106 -2.32264,-1.16303 -3.72657,-1.166016 l -0.50781,-0.0078 c -0.46159,0.610976 -0.85871,1.272246 -1.17188,1.980469 l 1.64844,0.02148 a 1.0001006,1.0001006 0 0 0 0.0156,0.0078 c 1.00423,0 1.92377,0.310898 2.54687,0.773437 0.6231,0.462728 0.9375,1.009402 0.9375,1.617187 0,0.958715 0.20474,2.034689 0.82617,2.960938 0.62143,0.926249 1.75561,1.646484 3.17383,1.646484 1.41823,0 2.54654,-0.720235 3.16797,-1.646484 0.62143,-0.926249 0.82617,-2.002223 0.82617,-2.960938 0,-0.584919 0.32819,-1.138861 0.97461,-1.609374 0.64641,-0.470514 1.58351,-0.78125 2.50977,-0.78125 a 1.0001006,1.0001006 0 0 0 0.0586,-0.0078 l 1.58008,-0.08984 c -0.31164,-0.690441 -0.70095,-1.336806 -1.1543,-1.933593 z"
         transform="matrix(0.26458334,0,0,0.26458334,0,280.06666)" />
    </g>
  </g>
</svg>
