<?xml version="1.0" encoding="UTF-8" standalone="no"?>
<!-- Created with Inkscape (http://www.inkscape.org/) -->

<svg
   xmlns:dc="http://purl.org/dc/elements/1.1/"
   xmlns:cc="http://creativecommons.org/ns#"
   xmlns:rdf="http://www.w3.org/1999/02/22-rdf-syntax-ns#"
   xmlns:svg="http://www.w3.org/2000/svg"
   xmlns="http://www.w3.org/2000/svg"
   xmlns:sodipodi="http://sodipodi.sourceforge.net/DTD/sodipodi-0.dtd"
   xmlns:inkscape="http://www.inkscape.org/namespaces/inkscape"
   width="10.506993mm"
   height="9.79496mm"
   viewBox="0 0 10.506994 9.7949587"
   version="1.1"
   id="svg5889"
   inkscape:version="0.92.3 (2405546, 2018-03-11)"
   sodipodi:docname="food-fried-egg.svg">
  <defs
     id="defs5883" />
  <sodipodi:namedview
     id="base"
     pagecolor="#ffffff"
     bordercolor="#666666"
     borderopacity="1.0"
     inkscape:pageopacity="0.0"
     inkscape:pageshadow="2"
     inkscape:zoom="3.06"
     inkscape:cx="27.351437"
     inkscape:cy="26.604657"
     inkscape:document-units="mm"
     inkscape:current-layer="layer1"
     showgrid="false"
     fit-margin-top="1"
     fit-margin-bottom="1"
     fit-margin-right="1"
     fit-margin-left="1"
     inkscape:window-width="1853"
     inkscape:window-height="1025"
     inkscape:window-x="67"
     inkscape:window-y="27"
     inkscape:window-maximized="1" />
  <metadata
     id="metadata5886">
    <rdf:RDF>
      <cc:Work
         rdf:about="">
        <dc:format>image/svg+xml</dc:format>
        <dc:type
           rdf:resource="http://purl.org/dc/dcmitype/StillImage" />
        <dc:title></dc:title>
      </cc:Work>
    </rdf:RDF>
  </metadata>
  <g
     inkscape:label="Capa 1"
     inkscape:groupmode="layer"
     id="layer1"
     transform="translate(-98.5966,-118.70684)">
    <g
       id="g8440">
      <g
         transform="matrix(0.35277777,0,0,-0.35277777,107.19578,120.51464)"
         id="g1718">
        <path
           inkscape:connector-curvature="0"
           id="path1720"
           style="fill:#cec3bd;fill-opacity:1;fill-rule:nonzero;stroke:none"
           d="m 0,0 c 0.822,-1.559 1.299,-3.475 1.346,-5.525 0.027,-3.662 -1.618,-6.741 -3.773,-8.863 -2.209,-2.138 -4.927,-3.365 -8.285,-3.617 -3.409,-0.215 -6.386,1.034 -8.528,2.657 -0.597,0.466 -1.127,0.956 -1.587,1.472 0.604,-1.194 1.567,-2.275 2.814,-3.249 2.141,-1.623 5.12,-2.872 8.528,-2.657 3.357,0.253 6.077,1.479 8.284,3.617 2.156,2.122 3.801,5.202 3.774,8.863 C 2.504,-4.381 1.567,-1.737 0,0" />
      </g>
      <g
         transform="matrix(0.35277777,0,0,-0.35277777,100.40841,125.92893)"
         id="g1722">
        <path
           inkscape:connector-curvature="0"
           id="path1724"
           style="fill:#ebebe4;fill-opacity:1;fill-rule:nonzero;stroke:none"
           d="m 0,0 c 2.142,-1.624 5.119,-2.872 8.528,-2.658 3.357,0.253 6.076,1.479 8.284,3.618 2.156,2.122 3.8,5.201 3.773,8.863 -0.046,2.05 -0.523,3.966 -1.345,5.525 -0.299,0.33 -0.62,0.628 -0.963,0.888 -2.142,1.667 -5.116,1.876 -8.522,0.47 C 6.4,15.197 4.627,12.381 2.421,10.255 0.264,8.091 -2.327,6.613 -2.301,4.225 -2.269,3.246 -2.021,2.33 -1.587,1.471 -1.127,0.956 -0.598,0.465 0,0" />
      </g>
      <g
         transform="matrix(0.35277777,0,0,-0.35277777,105.8639,121.85424)"
         id="g1726">
        <path
           inkscape:connector-curvature="0"
           id="path1728"
           style="fill:#df8b26;fill-opacity:1;fill-rule:nonzero;stroke:none"
           d="m 0,0 c 0.52,-0.695 0.827,-1.557 0.827,-2.491 0,-2.302 -1.865,-4.168 -4.168,-4.168 -1.428,0 -2.688,0.721 -3.44,1.817 0.513,-1.887 2.237,-3.276 4.286,-3.276 2.454,0 4.443,1.988 4.443,4.441 C 1.948,-2.148 1.176,-0.799 0,0" />
      </g>
      <g
         transform="matrix(0.35277777,0,0,-0.35277777,104.68534,124.20328)"
         id="g1730">
        <path
           inkscape:connector-curvature="0"
           id="path1732"
           style="fill:#f4af1b;fill-opacity:1;fill-rule:nonzero;stroke:none"
           d="m 0,0 c 2.303,0 4.168,1.866 4.168,4.167 0,0.935 -0.307,1.797 -0.827,2.492 -0.711,0.483 -1.57,0.765 -2.495,0.765 -2.451,0 -4.442,-1.988 -4.442,-4.442 0,-0.403 0.056,-0.794 0.156,-1.166 C -2.688,0.72 -1.428,0 0,0" />
      </g>
      <g
         transform="matrix(0.35277777,0,0,-0.35277777,101.28795,124.29112)"
         id="g1734">
        <path
           inkscape:connector-curvature="0"
           id="path1736"
           style="fill:#ffffff;fill-opacity:1;fill-rule:nonzero;stroke:none"
           d="m 0,0 c -0.575,-1.085 -1.683,-1.625 -2.477,-1.205 -0.794,0.419 -0.971,1.64 -0.397,2.726 0.575,1.085 1.684,1.625 2.477,1.205 C 0.396,2.307 0.574,1.086 0,0" />
      </g>
      <g
         transform="matrix(0.35277777,0,0,-0.35277777,104.69635,122.76684)"
         id="g1738">
        <path
           inkscape:connector-curvature="0"
           id="path1740"
           style="fill:#f8d820;fill-opacity:1;fill-rule:nonzero;stroke:none"
           d="m 0,0 c -0.67,-0.806 -1.685,-1.067 -2.264,-0.583 -0.583,0.481 -0.509,1.526 0.16,2.332 0.67,0.806 1.684,1.067 2.265,0.584 C 0.741,1.851 0.669,0.805 0,0" />
      </g>
    </g>
  </g>
</svg>
