<?xml version="1.0" ?><svg viewBox="0 0 64 64" xmlns="http://www.w3.org/2000/svg"><defs><style>.cls-1{fill:#ebafa5;}.cls-2{fill:#756d78;}.cls-3{fill:#655e66;}.cls-4{fill:#f1ccc6;}</style></defs><g id="Slug"><path class="cls-1" d="M52.22,16.8A3.27,3.27,0,0,0,49,20V30.79a1,1,0,0,0,2,0V20a1.23,1.23,0,0,1,1.24-1.24,1,1,0,0,0,0-2Z" id="path43442"/><path class="cls-1" d="M52.08,9.85a7.25,7.25,0,0,0-7.24,7.24V31.26a1,1,0,1,0,2,0V17.09a5.22,5.22,0,0,1,5.24-5.24,1,1,0,0,0,0-2Z" id="path45171"/><path class="cls-2" d="M32.16,44.93a15.3,15.3,0,0,1-12.4,3.55c-4.35-.65-9-3.5-9.44-9.24-1-13.4,7.79-19.71,17.39-19.71,8,0,14.7,7.69,16.76,15l4.32,9.68L45,48.32Z" id="path36063-6"/><path class="cls-3" d="M27.1,27.14a10.11,10.11,0,0,0-6.29,2.19,8,8,0,0,0-3,6.29,6.28,6.28,0,0,0,.69,3c.8,1.53,2.68,3,5.89,2.88a4.73,4.73,0,0,0,3.07-1.15,4.13,4.13,0,0,0,1.21-2.27,6.79,6.79,0,0,0-.09-2.91,1,1,0,1,0-1.93.52,5.4,5.4,0,0,1,.06,2,2.13,2.13,0,0,1-.61,1.2,2.62,2.62,0,0,1-1.8.61c-2.62.12-3.51-.83-4-1.81a4.46,4.46,0,0,1-.47-2,.13.13,0,0,0,0-.06,5.88,5.88,0,0,1,2.3-4.74,8.56,8.56,0,0,1,12.07,1.72,8.93,8.93,0,0,1,.68,8.3,10.41,10.41,0,0,1-2.66,4,1,1,0,0,0,1.37,1.46,12.45,12.45,0,0,0,3.17-4.8,11,11,0,0,0-.91-10.11A10.33,10.33,0,0,0,27.1,27.14Z" id="path382132"/><path class="cls-2" d="M54.11,14.92A2.89,2.89,0,1,0,57,17.8,2.9,2.9,0,0,0,54.11,14.92Z" id="path389168"/><path class="cls-2" d="M54,8a2.89,2.89,0,1,0,2.89,2.89A2.9,2.9,0,0,0,54,8Z" id="path389147"/><path class="cls-4" d="M48.05,28.49a3.58,3.58,0,0,0-3.59,3.58V41a3.93,3.93,0,0,1-3.93,3.93H32.16a15.33,15.33,0,0,1-12.4,3.55,12.27,12.27,0,0,1-6.3-2.82h0a10.69,10.69,0,0,0-5.33,6.2C7.56,53.55,9.06,55,10.85,55H40.53a14,14,0,0,0,14-14V35A6.52,6.52,0,0,0,48.05,28.49Z" id="rect32302-0"/></g></svg>