<svg xmlns="http://www.w3.org/2000/svg" xmlns:xlink="http://www.w3.org/1999/xlink" width="500" zoomAndPan="magnify" viewBox="0 0 375 374.999991" height="500" preserveAspectRatio="xMidYMid meet" version="1.0"><defs><clipPath id="id1"><path d="M 221.46875 83.003906 L 244.71875 83.003906 L 244.71875 99.503906 L 221.46875 99.503906 Z M 221.46875 83.003906 " clip-rule="nonzero"/></clipPath></defs><g clip-path="url(#id1)"><path fill="#5e17eb" d="M 232.261719 98.675781 C 232.261719 99.132812 231.890625 99.503906 231.433594 99.503906 L 222.308594 99.503906 C 221.851562 99.503906 221.476562 99.132812 221.476562 98.675781 L 221.476562 95.378906 C 221.476562 94.921875 221.851562 94.550781 222.308594 94.550781 L 223.550781 94.550781 C 224.238281 94.550781 224.796875 93.996094 224.796875 93.316406 C 224.796875 92.632812 224.238281 92.078125 223.550781 92.078125 L 222.308594 92.078125 C 221.851562 92.078125 221.476562 91.707031 221.476562 91.253906 L 221.476562 87.953125 C 221.476562 87.496094 221.851562 87.128906 222.308594 87.128906 L 224.796875 87.128906 L 224.796875 86.300781 C 224.796875 84.933594 225.914062 83.824219 227.292969 83.824219 C 227.457031 83.824219 227.621094 83.84375 227.785156 83.875 C 228.964844 84.140625 229.796875 85.195312 229.773438 86.398438 L 229.773438 87.128906 L 232.261719 87.128906 Z M 242.632812 87.953125 L 243.878906 87.953125 C 244.335938 87.953125 244.707031 87.582031 244.707031 87.128906 L 244.707031 83.828125 C 244.707031 83.371094 244.335938 83.003906 243.878906 83.003906 L 234.75 83.003906 C 234.292969 83.003906 233.921875 83.371094 233.921875 83.828125 L 233.921875 95.378906 L 236.410156 95.378906 L 236.410156 96.105469 C 236.390625 97.308594 237.222656 98.363281 238.402344 98.628906 C 239.75 98.898438 241.066406 98.03125 241.339844 96.691406 C 241.371094 96.53125 241.386719 96.367188 241.386719 96.203125 L 241.386719 95.378906 L 243.878906 95.378906 C 244.335938 95.378906 244.707031 95.007812 244.707031 94.550781 L 244.707031 91.253906 C 244.707031 90.796875 244.335938 90.425781 243.878906 90.425781 L 242.632812 90.425781 C 241.945312 90.425781 241.386719 89.871094 241.386719 89.191406 C 241.386719 88.507812 241.945312 87.953125 242.632812 87.953125 Z M 242.632812 87.953125 " fill-opacity="1" fill-rule="nonzero"/></g></svg>