<svg xmlns="http://www.w3.org/2000/svg" xmlns:xlink="http://www.w3.org/1999/xlink" width="500" zoomAndPan="magnify" viewBox="0 0 375 374.999991" height="500" preserveAspectRatio="xMidYMid meet" version="1.0"><defs><g/></defs><g fill="#ffd51e" fill-opacity="1"><g transform="translate(82.832064, 183.921638)"><g><path d="M 15.4375 -6.050781 L 6.214844 -6.050781 L 6.214844 -13.363281 L 18.96875 -13.363281 C 19.214844 -13.363281 19.417969 -13.566406 19.417969 -13.730469 L 19.417969 -18.886719 C 19.417969 -19.089844 19.214844 -19.253906 18.96875 -19.253906 L 6.214844 -19.253906 L 6.214844 -26.605469 L 15.4375 -26.605469 L 15.4375 -32.496094 L 0.445312 -32.496094 C 0.203125 -32.496094 0 -32.292969 0 -32.128906 L 0 -0.367188 C 0 -0.203125 0.203125 0 0.445312 0 L 15.4375 0 Z M 15.4375 -6.050781 "/></g></g></g><g fill="#ffd51e" fill-opacity="1"><g transform="translate(104.84698, 183.921638)"><g><path d="M 5.769531 -32.496094 L 0.445312 -32.496094 C 0.203125 -32.496094 0 -32.292969 0 -32.128906 L 0 -19.375 L 6.214844 -19.375 L 6.214844 -26.566406 C 13.28125 -26.929688 18.523438 -23.964844 18.523438 -16.246094 C 18.523438 -6.214844 10.15625 -5.808594 6.214844 -5.972656 L 6.214844 -13.121094 L 0 -13.121094 L 0 -0.367188 C 0 -0.203125 0.203125 0 0.445312 0 L 5.769531 0 C 13.851562 0 24.777344 -2.355469 24.777344 -16.246094 C 24.777344 -30.667969 13.6875 -32.496094 5.769531 -32.496094 Z M 5.769531 -32.496094 "/></g></g></g><g fill="#ffd51e" fill-opacity="1"><g transform="translate(132.507688, 183.921638)"><g><path d="M 23.964844 -32.496094 L 18.683594 -32.496094 C 18.402344 -32.496094 18.238281 -32.292969 18.238281 -32.128906 L 18.238281 -10.84375 C 18.238281 -7.554688 15.234375 -5.972656 12.1875 -5.972656 C 9.179688 -5.972656 6.5 -7.675781 6.132812 -10.886719 L 6.132812 -26.605469 L 0 -26.605469 L 0 -10.84375 C 0 -4.144531 5.484375 0 12.1875 0 C 19.089844 0 24.371094 -3.980469 24.371094 -10.84375 L 24.371094 -32.128906 C 24.371094 -32.292969 24.167969 -32.496094 23.964844 -32.496094 Z M 23.964844 -32.496094 "/></g></g></g><g fill="#ffd51e" fill-opacity="1"><g transform="translate(159.721605, 183.921638)"><g><path d="M 6.703125 -20.714844 L 6.703125 -0.367188 C 6.703125 -0.203125 6.863281 0 7.148438 0 L 12.390625 0 C 12.671875 0 12.875 -0.203125 12.875 -0.367188 L 12.875 -20.714844 Z M 0.445312 -26.929688 L 19.089844 -26.929688 C 19.375 -26.929688 19.539062 -27.09375 19.539062 -27.296875 L 19.539062 -32.128906 C 19.539062 -32.292969 19.375 -32.496094 19.089844 -32.496094 L 0.445312 -32.496094 C 0.203125 -32.496094 0 -32.292969 0 -32.128906 L 0 -27.296875 C 0 -27.09375 0.203125 -26.929688 0.445312 -26.929688 Z M 0.445312 -26.929688 "/></g></g></g><g fill="#ffd51e" fill-opacity="1"><g transform="translate(181.858379, 183.921638)"><g><path d="M 13.242188 -5.566406 L 9.992188 -5.566406 L 9.992188 -32.496094 L 3.777344 -32.496094 L 3.777344 -5.566406 L 0.445312 -5.566406 C 0.203125 -5.566406 0 -5.402344 0 -5.199219 L 0 -0.367188 C 0 -0.203125 0.203125 0 0.445312 0 L 13.242188 0 C 13.527344 0 13.6875 -0.203125 13.6875 -0.367188 L 13.6875 -5.199219 C 13.6875 -5.402344 13.527344 -5.566406 13.242188 -5.566406 Z M 13.242188 -5.566406 "/></g></g></g><g fill="#ffd51e" fill-opacity="1"><g transform="translate(197.861945, 183.921638)"><g><path d="M 14.90625 -18.035156 C 12.59375 -19.132812 10.316406 -19.132812 10.113281 -19.132812 C 8.042969 -19.132812 6.050781 -20.351562 6.050781 -22.707031 C 6.050781 -25.304688 7.878906 -26.648438 10.113281 -26.648438 C 12.226562 -26.648438 14.015625 -25.550781 14.09375 -23.234375 C 14.09375 -23.113281 14.296875 -22.910156 14.542969 -22.910156 L 19.621094 -22.910156 C 19.902344 -22.910156 20.105469 -23.113281 20.066406 -23.234375 C 19.984375 -28.757812 15.679688 -32.496094 10.113281 -32.496094 C 4.914062 -32.496094 0 -28.800781 0 -22.707031 C 0 -18.929688 1.910156 -16.042969 5.28125 -14.5 C 7.636719 -13.40625 9.828125 -13.40625 10.113281 -13.40625 C 11.941406 -13.324219 14.175781 -11.859375 14.175781 -9.464844 C 14.175781 -7.3125 12.265625 -5.847656 10.113281 -5.847656 C 10.113281 -5.847656 10.113281 -5.847656 10.074219 -5.847656 L 10.074219 0 C 10.113281 0 10.113281 0 10.113281 0 C 15.3125 0 20.1875 -3.371094 20.1875 -9.464844 C 20.1875 -13.28125 18.320312 -16.449219 14.90625 -18.035156 Z M 14.90625 -18.035156 "/></g></g></g><g fill="#ffd51e" fill-opacity="1"><g transform="translate(220.68921, 183.921638)"><g><path d="M 29.082031 -7.839844 L 35.257812 -7.839844 L 35.257812 -32.128906 C 35.257812 -32.292969 35.09375 -32.496094 34.8125 -32.496094 L 29.449219 -32.496094 C 29.285156 -32.496094 29.082031 -32.375 29.003906 -32.253906 L 17.914062 -8.449219 L 6.253906 -32.253906 C 6.214844 -32.375 5.972656 -32.496094 5.847656 -32.496094 L 0.40625 -32.496094 C 0.121094 -32.496094 0 -32.292969 0 -32.128906 L 0 -0.367188 C 0 -0.203125 0.121094 0 0.40625 0 L 5.769531 0 C 6.011719 0 6.214844 -0.203125 6.214844 -0.367188 L 6.214844 -18.605469 L 15.03125 -1.542969 C 15.070312 -1.421875 15.3125 -1.300781 15.4375 -1.300781 L 20.433594 -1.300781 C 20.554688 -1.300781 20.757812 -1.421875 20.796875 -1.542969 L 29.082031 -18.15625 Z M 29.082031 -7.839844 "/></g></g></g><g fill="#ffd51e" fill-opacity="1"><g transform="translate(259.357192, 183.921638)"><g><path d="M 18.683594 -16.167969 C 18.683594 -17.871094 17.34375 -19.253906 15.640625 -19.253906 C 13.933594 -19.253906 12.59375 -17.871094 12.59375 -16.167969 C 12.59375 -14.5 13.933594 -13.121094 15.640625 -13.121094 C 17.34375 -13.121094 18.683594 -14.5 18.683594 -16.167969 Z M 31.277344 -16.289062 C 31.277344 -24.371094 26.039062 -32.496094 15.679688 -32.496094 C 5.160156 -32.496094 0 -24.371094 0 -16.289062 C 0 -8.164062 5.160156 0 15.679688 0 C 26.039062 0 31.277344 -8.164062 31.277344 -16.289062 Z M 25.183594 -16.167969 C 25.183594 -10.925781 21.976562 -5.6875 15.679688 -5.6875 C 9.300781 -5.6875 6.132812 -10.925781 6.132812 -16.167969 C 6.132812 -21.488281 9.300781 -26.769531 15.679688 -26.769531 C 21.976562 -26.769531 25.183594 -21.488281 25.183594 -16.167969 Z M 25.183594 -16.167969 "/></g></g></g></svg>