<svg xmlns="http://www.w3.org/2000/svg" xmlns:xlink="http://www.w3.org/1999/xlink" width="500" zoomAndPan="magnify" viewBox="0 0 375 374.999991" height="500" preserveAspectRatio="xMidYMid meet" version="1.0"><defs><g/><clipPath id="id1"><path d="M 122.46875 91.535156 L 252.21875 91.535156 L 252.21875 184.535156 L 122.46875 184.535156 Z M 122.46875 91.535156 " clip-rule="nonzero"/></clipPath><clipPath id="id2"><path d="M 155.078125 164.332031 L 179.078125 164.332031 L 179.078125 181.582031 L 155.078125 181.582031 Z M 155.078125 164.332031 " clip-rule="nonzero"/></clipPath><clipPath id="id3"><path d="M 196.3125 96.125 L 220.3125 96.125 L 220.3125 113.375 L 196.3125 113.375 Z M 196.3125 96.125 " clip-rule="nonzero"/></clipPath></defs><g clip-path="url(#id1)"><path fill="#5e17eb" d="M 182.710938 179.886719 C 182.710938 182.453125 180.636719 184.535156 178.082031 184.535156 L 127.148438 184.535156 C 124.589844 184.535156 122.515625 182.453125 122.515625 179.886719 L 122.515625 161.285156 C 122.515625 158.71875 124.589844 156.636719 127.148438 156.636719 L 134.09375 156.636719 C 137.929688 156.636719 141.039062 153.515625 141.039062 149.660156 C 141.039062 145.808594 137.929688 142.6875 134.09375 142.6875 L 127.148438 142.6875 C 124.589844 142.6875 122.515625 140.605469 122.515625 138.035156 L 122.515625 119.4375 C 122.515625 116.867188 124.589844 114.785156 127.148438 114.785156 L 141.039062 114.785156 L 141.039062 110.136719 C 141.046875 102.421875 147.285156 96.171875 154.96875 96.179688 C 155.886719 96.179688 156.804688 96.273438 157.707031 96.457031 C 164.300781 97.957031 168.941406 103.898438 168.820312 110.6875 L 168.820312 114.785156 L 182.710938 114.785156 Z M 240.589844 119.4375 L 247.535156 119.4375 C 250.09375 119.4375 252.167969 117.355469 252.167969 114.785156 L 252.167969 96.1875 C 252.167969 93.617188 250.09375 91.535156 247.535156 91.535156 L 196.601562 91.535156 C 194.046875 91.535156 191.972656 93.617188 191.972656 96.1875 L 191.972656 161.285156 L 205.863281 161.285156 L 205.863281 165.386719 C 205.742188 172.175781 210.382812 178.117188 216.976562 179.617188 C 224.507812 181.144531 231.847656 176.25 233.371094 168.6875 C 233.550781 167.78125 233.644531 166.859375 233.644531 165.9375 L 233.644531 161.285156 L 247.535156 161.285156 C 250.09375 161.285156 252.167969 159.203125 252.167969 156.636719 L 252.167969 138.035156 C 252.167969 135.46875 250.09375 133.386719 247.535156 133.386719 L 240.589844 133.386719 C 236.753906 133.386719 233.644531 130.265625 233.644531 126.410156 C 233.644531 122.558594 236.753906 119.4375 240.589844 119.4375 Z M 240.589844 119.4375 " fill-opacity="1" fill-rule="nonzero"/></g><g fill="#ffd51e" fill-opacity="1"><g transform="translate(85.701309, 232.949764)"><g><path d="M 15.4375 -6.050781 L 6.214844 -6.050781 L 6.214844 -13.363281 L 18.96875 -13.363281 C 19.214844 -13.363281 19.417969 -13.566406 19.417969 -13.730469 L 19.417969 -18.886719 C 19.417969 -19.089844 19.214844 -19.253906 18.96875 -19.253906 L 6.214844 -19.253906 L 6.214844 -26.605469 L 15.4375 -26.605469 L 15.4375 -32.496094 L 0.445312 -32.496094 C 0.203125 -32.496094 0 -32.292969 0 -32.128906 L 0 -0.367188 C 0 -0.203125 0.203125 0 0.445312 0 L 15.4375 0 Z M 15.4375 -6.050781 "/></g></g></g><g fill="#ffd51e" fill-opacity="1"><g transform="translate(107.716224, 232.949764)"><g><path d="M 5.769531 -32.496094 L 0.445312 -32.496094 C 0.203125 -32.496094 0 -32.292969 0 -32.128906 L 0 -19.375 L 6.214844 -19.375 L 6.214844 -26.566406 C 13.28125 -26.929688 18.523438 -23.964844 18.523438 -16.246094 C 18.523438 -6.214844 10.15625 -5.808594 6.214844 -5.972656 L 6.214844 -13.121094 L 0 -13.121094 L 0 -0.367188 C 0 -0.203125 0.203125 0 0.445312 0 L 5.769531 0 C 13.851562 0 24.777344 -2.355469 24.777344 -16.246094 C 24.777344 -30.667969 13.6875 -32.496094 5.769531 -32.496094 Z M 5.769531 -32.496094 "/></g></g></g><g fill="#ffd51e" fill-opacity="1"><g transform="translate(135.376932, 232.949764)"><g><path d="M 23.964844 -32.496094 L 18.683594 -32.496094 C 18.402344 -32.496094 18.238281 -32.292969 18.238281 -32.128906 L 18.238281 -10.84375 C 18.238281 -7.554688 15.234375 -5.972656 12.1875 -5.972656 C 9.179688 -5.972656 6.5 -7.675781 6.132812 -10.886719 L 6.132812 -26.605469 L 0 -26.605469 L 0 -10.84375 C 0 -4.144531 5.484375 0 12.1875 0 C 19.089844 0 24.371094 -3.980469 24.371094 -10.84375 L 24.371094 -32.128906 C 24.371094 -32.292969 24.167969 -32.496094 23.964844 -32.496094 Z M 23.964844 -32.496094 "/></g></g></g><g fill="#ffd51e" fill-opacity="1"><g transform="translate(162.590849, 232.949764)"><g><path d="M 6.703125 -20.714844 L 6.703125 -0.367188 C 6.703125 -0.203125 6.863281 0 7.148438 0 L 12.390625 0 C 12.671875 0 12.875 -0.203125 12.875 -0.367188 L 12.875 -20.714844 Z M 0.445312 -26.929688 L 19.089844 -26.929688 C 19.375 -26.929688 19.539062 -27.09375 19.539062 -27.296875 L 19.539062 -32.128906 C 19.539062 -32.292969 19.375 -32.496094 19.089844 -32.496094 L 0.445312 -32.496094 C 0.203125 -32.496094 0 -32.292969 0 -32.128906 L 0 -27.296875 C 0 -27.09375 0.203125 -26.929688 0.445312 -26.929688 Z M 0.445312 -26.929688 "/></g></g></g><g fill="#ffd51e" fill-opacity="1"><g transform="translate(184.727623, 232.949764)"><g><path d="M 13.242188 -5.566406 L 9.992188 -5.566406 L 9.992188 -32.496094 L 3.777344 -32.496094 L 3.777344 -5.566406 L 0.445312 -5.566406 C 0.203125 -5.566406 0 -5.402344 0 -5.199219 L 0 -0.367188 C 0 -0.203125 0.203125 0 0.445312 0 L 13.242188 0 C 13.527344 0 13.6875 -0.203125 13.6875 -0.367188 L 13.6875 -5.199219 C 13.6875 -5.402344 13.527344 -5.566406 13.242188 -5.566406 Z M 13.242188 -5.566406 "/></g></g></g><g fill="#ffd51e" fill-opacity="1"><g transform="translate(200.731189, 232.949764)"><g><path d="M 14.90625 -18.035156 C 12.59375 -19.132812 10.316406 -19.132812 10.113281 -19.132812 C 8.042969 -19.132812 6.050781 -20.351562 6.050781 -22.707031 C 6.050781 -25.304688 7.878906 -26.648438 10.113281 -26.648438 C 12.226562 -26.648438 14.015625 -25.550781 14.09375 -23.234375 C 14.09375 -23.113281 14.296875 -22.910156 14.542969 -22.910156 L 19.621094 -22.910156 C 19.902344 -22.910156 20.105469 -23.113281 20.066406 -23.234375 C 19.984375 -28.757812 15.679688 -32.496094 10.113281 -32.496094 C 4.914062 -32.496094 0 -28.800781 0 -22.707031 C 0 -18.929688 1.910156 -16.042969 5.28125 -14.5 C 7.636719 -13.40625 9.828125 -13.40625 10.113281 -13.40625 C 11.941406 -13.324219 14.175781 -11.859375 14.175781 -9.464844 C 14.175781 -7.3125 12.265625 -5.847656 10.113281 -5.847656 C 10.113281 -5.847656 10.113281 -5.847656 10.074219 -5.847656 L 10.074219 0 C 10.113281 0 10.113281 0 10.113281 0 C 15.3125 0 20.1875 -3.371094 20.1875 -9.464844 C 20.1875 -13.28125 18.320312 -16.449219 14.90625 -18.035156 Z M 14.90625 -18.035156 "/></g></g></g><g fill="#ffd51e" fill-opacity="1"><g transform="translate(223.558455, 232.949764)"><g><path d="M 29.082031 -7.839844 L 35.257812 -7.839844 L 35.257812 -32.128906 C 35.257812 -32.292969 35.09375 -32.496094 34.8125 -32.496094 L 29.449219 -32.496094 C 29.285156 -32.496094 29.082031 -32.375 29.003906 -32.253906 L 17.914062 -8.449219 L 6.253906 -32.253906 C 6.214844 -32.375 5.972656 -32.496094 5.847656 -32.496094 L 0.40625 -32.496094 C 0.121094 -32.496094 0 -32.292969 0 -32.128906 L 0 -0.367188 C 0 -0.203125 0.121094 0 0.40625 0 L 5.769531 0 C 6.011719 0 6.214844 -0.203125 6.214844 -0.367188 L 6.214844 -18.605469 L 15.03125 -1.542969 C 15.070312 -1.421875 15.3125 -1.300781 15.4375 -1.300781 L 20.433594 -1.300781 C 20.554688 -1.300781 20.757812 -1.421875 20.796875 -1.542969 L 29.082031 -18.15625 Z M 29.082031 -7.839844 "/></g></g></g><g fill="#ffd51e" fill-opacity="1"><g transform="translate(262.226436, 232.949764)"><g><path d="M 18.683594 -16.167969 C 18.683594 -17.871094 17.34375 -19.253906 15.640625 -19.253906 C 13.933594 -19.253906 12.59375 -17.871094 12.59375 -16.167969 C 12.59375 -14.5 13.933594 -13.121094 15.640625 -13.121094 C 17.34375 -13.121094 18.683594 -14.5 18.683594 -16.167969 Z M 31.277344 -16.289062 C 31.277344 -24.371094 26.039062 -32.496094 15.679688 -32.496094 C 5.160156 -32.496094 0 -24.371094 0 -16.289062 C 0 -8.164062 5.160156 0 15.679688 0 C 26.039062 0 31.277344 -8.164062 31.277344 -16.289062 Z M 25.183594 -16.167969 C 25.183594 -10.925781 21.976562 -5.6875 15.679688 -5.6875 C 9.300781 -5.6875 6.132812 -10.925781 6.132812 -16.167969 C 6.132812 -21.488281 9.300781 -26.769531 15.679688 -26.769531 C 21.976562 -26.769531 25.183594 -21.488281 25.183594 -16.167969 Z M 25.183594 -16.167969 "/></g></g></g><g fill="#5e17eb" fill-opacity="1"><g transform="translate(105.356207, 250.993798)"><g><path d="M 6.203125 -2.4375 L 2.640625 -2.4375 L 1.640625 0 L 0.40625 0 L 4.46875 -9.671875 L 4.546875 -9.671875 L 8.609375 0 L 7.171875 0 Z M 5.78125 -3.515625 L 4.453125 -6.90625 L 3.078125 -3.515625 Z M 5.78125 -3.515625 "/></g></g></g><g fill="#5e17eb" fill-opacity="1"><g transform="translate(114.056075, 250.993798)"><g><path d="M 4.40625 -5.53125 C 4.90625 -5.53125 5.351562 -5.410156 5.75 -5.171875 C 6.15625 -4.929688 6.472656 -4.59375 6.703125 -4.15625 C 6.929688 -3.726562 7.046875 -3.234375 7.046875 -2.671875 C 7.046875 -2.117188 6.921875 -1.628906 6.671875 -1.203125 C 6.429688 -0.773438 6.09375 -0.445312 5.65625 -0.21875 C 5.21875 0.0078125 4.726562 0.125 4.1875 0.125 C 3.800781 0.125 3.429688 0.0390625 3.078125 -0.125 C 2.734375 -0.289062 2.453125 -0.515625 2.234375 -0.796875 L 2.234375 2.5625 L 1.046875 2.5625 L 1.046875 -5.40625 L 2.078125 -5.40625 L 2.1875 -4.515625 C 2.457031 -4.816406 2.78125 -5.0625 3.15625 -5.25 C 3.539062 -5.4375 3.957031 -5.53125 4.40625 -5.53125 Z M 3.953125 -0.828125 C 4.285156 -0.828125 4.59375 -0.90625 4.875 -1.0625 C 5.164062 -1.226562 5.394531 -1.445312 5.5625 -1.71875 C 5.738281 -2 5.828125 -2.3125 5.828125 -2.65625 C 5.828125 -3.007812 5.75 -3.328125 5.59375 -3.609375 C 5.4375 -3.890625 5.21875 -4.109375 4.9375 -4.265625 C 4.664062 -4.429688 4.363281 -4.515625 4.03125 -4.515625 C 3.582031 -4.515625 3.195312 -4.390625 2.875 -4.140625 C 2.550781 -3.890625 2.335938 -3.550781 2.234375 -3.125 L 2.234375 -2.234375 C 2.304688 -1.828125 2.5 -1.488281 2.8125 -1.21875 C 3.132812 -0.957031 3.515625 -0.828125 3.953125 -0.828125 Z M 3.953125 -0.828125 "/></g></g></g><g fill="#5e17eb" fill-opacity="1"><g transform="translate(121.370086, 250.993798)"><g><path d="M 2.203125 -4.0625 C 2.335938 -4.351562 2.53125 -4.609375 2.78125 -4.828125 C 3.03125 -5.046875 3.296875 -5.210938 3.578125 -5.328125 C 3.859375 -5.453125 4.109375 -5.519531 4.328125 -5.53125 L 4.28125 -4.34375 C 3.894531 -4.351562 3.546875 -4.273438 3.234375 -4.109375 C 2.921875 -3.941406 2.675781 -3.703125 2.5 -3.390625 C 2.320312 -3.085938 2.234375 -2.765625 2.234375 -2.421875 L 2.234375 0 L 1.046875 0 L 1.046875 -5.3125 L 2.109375 -5.3125 Z M 2.203125 -4.0625 "/></g></g></g><g fill="#5e17eb" fill-opacity="1"><g transform="translate(125.899544, 250.993798)"><g><path d="M 3.53125 -0.90625 C 3.976562 -0.90625 4.410156 -1.054688 4.828125 -1.359375 L 5.375 -0.46875 C 5.09375 -0.28125 4.785156 -0.132812 4.453125 -0.03125 C 4.128906 0.0703125 3.8125 0.125 3.5 0.125 C 2.914062 0.125 2.398438 0.00390625 1.953125 -0.234375 C 1.515625 -0.484375 1.175781 -0.820312 0.9375 -1.25 C 0.695312 -1.675781 0.578125 -2.160156 0.578125 -2.703125 C 0.578125 -3.222656 0.707031 -3.695312 0.96875 -4.125 C 1.226562 -4.5625 1.582031 -4.90625 2.03125 -5.15625 C 2.488281 -5.40625 2.988281 -5.53125 3.53125 -5.53125 C 4.226562 -5.53125 4.804688 -5.328125 5.265625 -4.921875 C 5.734375 -4.515625 6.054688 -3.945312 6.234375 -3.21875 L 2.015625 -1.75 C 2.171875 -1.476562 2.378906 -1.269531 2.640625 -1.125 C 2.898438 -0.976562 3.195312 -0.90625 3.53125 -0.90625 Z M 3.4375 -4.578125 C 2.945312 -4.578125 2.546875 -4.40625 2.234375 -4.0625 C 1.921875 -3.726562 1.765625 -3.296875 1.765625 -2.765625 C 1.765625 -2.628906 1.765625 -2.53125 1.765625 -2.46875 L 4.875 -3.609375 C 4.738281 -3.898438 4.550781 -4.132812 4.3125 -4.3125 C 4.082031 -4.488281 3.789062 -4.578125 3.4375 -4.578125 Z M 3.4375 -4.578125 "/></g></g></g><g fill="#5e17eb" fill-opacity="1"><g transform="translate(132.276809, 250.993798)"><g><path d="M 4.34375 -5.515625 C 4.84375 -5.515625 5.253906 -5.367188 5.578125 -5.078125 C 5.898438 -4.785156 6.066406 -4.40625 6.078125 -3.9375 L 6.078125 0 L 4.875 0 L 4.875 -3.515625 C 4.851562 -3.816406 4.757812 -4.050781 4.59375 -4.21875 C 4.4375 -4.394531 4.191406 -4.488281 3.859375 -4.5 C 3.390625 -4.5 3 -4.304688 2.6875 -3.921875 C 2.382812 -3.546875 2.234375 -3.066406 2.234375 -2.484375 L 2.234375 0 L 1.046875 0 L 1.046875 -5.3125 L 2.125 -5.3125 L 2.203125 -4.296875 C 2.390625 -4.679688 2.671875 -4.976562 3.046875 -5.1875 C 3.421875 -5.40625 3.851562 -5.515625 4.34375 -5.515625 Z M 4.34375 -5.515625 "/></g></g></g><g fill="#5e17eb" fill-opacity="1"><g transform="translate(139.077541, 250.993798)"><g><path d="M 6.59375 -9.953125 L 6.59375 0 L 5.375 0 L 5.375 -0.828125 C 5.125 -0.535156 4.8125 -0.300781 4.4375 -0.125 C 4.0625 0.0390625 3.65625 0.125 3.21875 0.125 C 2.71875 0.125 2.265625 0.00390625 1.859375 -0.234375 C 1.460938 -0.472656 1.148438 -0.804688 0.921875 -1.234375 C 0.691406 -1.671875 0.578125 -2.171875 0.578125 -2.734375 C 0.578125 -3.304688 0.695312 -3.804688 0.9375 -4.234375 C 1.175781 -4.660156 1.503906 -4.984375 1.921875 -5.203125 C 2.347656 -5.421875 2.828125 -5.53125 3.359375 -5.53125 C 3.753906 -5.53125 4.140625 -5.445312 4.515625 -5.28125 C 4.890625 -5.113281 5.179688 -4.882812 5.390625 -4.59375 L 5.390625 -9.953125 Z M 3.578125 -0.90625 C 4.046875 -0.90625 4.4375 -1.023438 4.75 -1.265625 C 5.070312 -1.515625 5.28125 -1.847656 5.375 -2.265625 L 5.375 -3.28125 C 5.28125 -3.664062 5.0625 -3.976562 4.71875 -4.21875 C 4.382812 -4.457031 4.003906 -4.578125 3.578125 -4.578125 C 3.253906 -4.578125 2.953125 -4.5 2.671875 -4.34375 C 2.398438 -4.1875 2.179688 -3.96875 2.015625 -3.6875 C 1.859375 -3.414062 1.78125 -3.101562 1.78125 -2.75 C 1.78125 -2.40625 1.859375 -2.09375 2.015625 -1.8125 C 2.179688 -1.53125 2.398438 -1.304688 2.671875 -1.140625 C 2.953125 -0.984375 3.253906 -0.90625 3.578125 -0.90625 Z M 3.578125 -0.90625 "/></g></g></g><g fill="#5e17eb" fill-opacity="1"><g transform="translate(146.391551, 250.993798)"><g><path d="M 3.53125 -0.90625 C 3.976562 -0.90625 4.410156 -1.054688 4.828125 -1.359375 L 5.375 -0.46875 C 5.09375 -0.28125 4.785156 -0.132812 4.453125 -0.03125 C 4.128906 0.0703125 3.8125 0.125 3.5 0.125 C 2.914062 0.125 2.398438 0.00390625 1.953125 -0.234375 C 1.515625 -0.484375 1.175781 -0.820312 0.9375 -1.25 C 0.695312 -1.675781 0.578125 -2.160156 0.578125 -2.703125 C 0.578125 -3.222656 0.707031 -3.695312 0.96875 -4.125 C 1.226562 -4.5625 1.582031 -4.90625 2.03125 -5.15625 C 2.488281 -5.40625 2.988281 -5.53125 3.53125 -5.53125 C 4.226562 -5.53125 4.804688 -5.328125 5.265625 -4.921875 C 5.734375 -4.515625 6.054688 -3.945312 6.234375 -3.21875 L 2.015625 -1.75 C 2.171875 -1.476562 2.378906 -1.269531 2.640625 -1.125 C 2.898438 -0.976562 3.195312 -0.90625 3.53125 -0.90625 Z M 3.4375 -4.578125 C 2.945312 -4.578125 2.546875 -4.40625 2.234375 -4.0625 C 1.921875 -3.726562 1.765625 -3.296875 1.765625 -2.765625 C 1.765625 -2.628906 1.765625 -2.53125 1.765625 -2.46875 L 4.875 -3.609375 C 4.738281 -3.898438 4.550781 -4.132812 4.3125 -4.3125 C 4.082031 -4.488281 3.789062 -4.578125 3.4375 -4.578125 Z M 3.4375 -4.578125 "/></g></g></g><g fill="#5e17eb" fill-opacity="1"><g transform="translate(152.768816, 250.993798)"><g><path d="M 2.203125 -4.0625 C 2.335938 -4.351562 2.53125 -4.609375 2.78125 -4.828125 C 3.03125 -5.046875 3.296875 -5.210938 3.578125 -5.328125 C 3.859375 -5.453125 4.109375 -5.519531 4.328125 -5.53125 L 4.28125 -4.34375 C 3.894531 -4.351562 3.546875 -4.273438 3.234375 -4.109375 C 2.921875 -3.941406 2.675781 -3.703125 2.5 -3.390625 C 2.320312 -3.085938 2.234375 -2.765625 2.234375 -2.421875 L 2.234375 0 L 1.046875 0 L 1.046875 -5.3125 L 2.109375 -5.3125 Z M 2.203125 -4.0625 "/></g></g></g><g fill="#5e17eb" fill-opacity="1"><g transform="translate(157.298276, 250.993798)"><g/></g></g><g fill="#5e17eb" fill-opacity="1"><g transform="translate(161.057808, 250.993798)"><g><path d="M 2.765625 -7.65625 L 2.765625 -5.296875 L 4.21875 -5.296875 L 4.21875 -4.359375 L 2.765625 -4.359375 L 2.765625 0 L 1.546875 0 L 1.546875 -4.359375 L 0.578125 -4.359375 L 0.578125 -5.296875 L 1.546875 -5.296875 L 1.546875 -7.65625 Z M 2.765625 -7.65625 "/></g></g></g><g fill="#5e17eb" fill-opacity="1"><g transform="translate(165.381947, 250.993798)"><g><path d="M 6.5 -5.3125 L 6.5 0 L 5.296875 0 L 5.296875 -0.875 C 5.109375 -0.625 4.832031 -0.394531 4.46875 -0.1875 C 4.113281 0.0195312 3.710938 0.125 3.265625 0.125 C 2.753906 0.125 2.296875 0.015625 1.890625 -0.203125 C 1.484375 -0.421875 1.160156 -0.738281 0.921875 -1.15625 C 0.691406 -1.570312 0.578125 -2.070312 0.578125 -2.65625 C 0.578125 -3.238281 0.695312 -3.742188 0.9375 -4.171875 C 1.1875 -4.609375 1.519531 -4.941406 1.9375 -5.171875 C 2.351562 -5.410156 2.8125 -5.53125 3.3125 -5.53125 C 3.769531 -5.53125 4.164062 -5.429688 4.5 -5.234375 C 4.832031 -5.035156 5.097656 -4.78125 5.296875 -4.46875 L 5.390625 -5.3125 Z M 3.578125 -0.859375 C 4.015625 -0.859375 4.390625 -0.976562 4.703125 -1.21875 C 5.015625 -1.46875 5.210938 -1.800781 5.296875 -2.21875 L 5.296875 -3.28125 C 5.203125 -3.65625 4.988281 -3.957031 4.65625 -4.1875 C 4.332031 -4.425781 3.960938 -4.546875 3.546875 -4.546875 C 3.222656 -4.546875 2.925781 -4.46875 2.65625 -4.3125 C 2.394531 -4.15625 2.179688 -3.9375 2.015625 -3.65625 C 1.859375 -3.382812 1.78125 -3.070312 1.78125 -2.71875 C 1.78125 -2.375 1.859375 -2.0625 2.015625 -1.78125 C 2.179688 -1.5 2.398438 -1.273438 2.671875 -1.109375 C 2.953125 -0.941406 3.253906 -0.859375 3.578125 -0.859375 Z M 3.578125 -0.859375 "/></g></g></g><g fill="#5e17eb" fill-opacity="1"><g transform="translate(172.618961, 250.993798)"><g><path d="M 7.859375 -5.53125 C 8.367188 -5.53125 8.773438 -5.382812 9.078125 -5.09375 C 9.390625 -4.800781 9.550781 -4.414062 9.5625 -3.9375 L 9.5625 0 L 8.375 0 L 8.375 -3.5 C 8.34375 -4.125 8.0625 -4.457031 7.53125 -4.5 C 7.21875 -4.5 6.9375 -4.40625 6.6875 -4.21875 C 6.445312 -4.03125 6.257812 -3.785156 6.125 -3.484375 C 5.988281 -3.191406 5.914062 -2.875 5.90625 -2.53125 L 5.90625 0 L 4.703125 0 L 4.703125 -3.5 C 4.671875 -4.125 4.378906 -4.457031 3.828125 -4.5 C 3.523438 -4.5 3.25 -4.40625 3 -4.21875 C 2.757812 -4.03125 2.570312 -3.785156 2.4375 -3.484375 C 2.300781 -3.179688 2.234375 -2.859375 2.234375 -2.515625 L 2.234375 0 L 1.046875 0 L 1.046875 -5.3125 L 2.125 -5.3125 L 2.203125 -4.3125 C 2.410156 -4.695312 2.691406 -4.992188 3.046875 -5.203125 C 3.398438 -5.421875 3.804688 -5.53125 4.265625 -5.53125 C 4.691406 -5.53125 5.050781 -5.429688 5.34375 -5.234375 C 5.632812 -5.035156 5.820312 -4.757812 5.90625 -4.40625 C 6.125 -4.757812 6.40625 -5.035156 6.75 -5.234375 C 7.09375 -5.429688 7.460938 -5.53125 7.859375 -5.53125 Z M 7.859375 -5.53125 "/></g></g></g><g fill="#5e17eb" fill-opacity="1"><g transform="translate(182.910003, 250.993798)"><g><path d="M 4.4375 -5.53125 C 4.914062 -5.53125 5.351562 -5.414062 5.75 -5.1875 C 6.15625 -4.957031 6.472656 -4.628906 6.703125 -4.203125 C 6.929688 -3.785156 7.046875 -3.300781 7.046875 -2.75 C 7.046875 -2.164062 6.921875 -1.65625 6.671875 -1.21875 C 6.429688 -0.78125 6.097656 -0.445312 5.671875 -0.21875 C 5.242188 0.0078125 4.785156 0.125 4.296875 0.125 C 3.859375 0.125 3.457031 0.0390625 3.09375 -0.125 C 2.738281 -0.300781 2.453125 -0.535156 2.234375 -0.828125 L 2.234375 0 L 1.046875 0 L 1.046875 -9.953125 L 2.234375 -9.953125 L 2.234375 -4.609375 C 2.453125 -4.890625 2.753906 -5.113281 3.140625 -5.28125 C 3.535156 -5.445312 3.96875 -5.53125 4.4375 -5.53125 Z M 4.03125 -0.90625 C 4.550781 -0.90625 4.976562 -1.078125 5.3125 -1.421875 C 5.65625 -1.773438 5.828125 -2.21875 5.828125 -2.75 C 5.828125 -3.09375 5.75 -3.398438 5.59375 -3.671875 C 5.4375 -3.953125 5.21875 -4.171875 4.9375 -4.328125 C 4.664062 -4.492188 4.363281 -4.578125 4.03125 -4.578125 C 3.59375 -4.578125 3.207031 -4.457031 2.875 -4.21875 C 2.550781 -3.988281 2.335938 -3.679688 2.234375 -3.296875 L 2.234375 -2.21875 C 2.335938 -1.832031 2.550781 -1.515625 2.875 -1.265625 C 3.195312 -1.023438 3.582031 -0.90625 4.03125 -0.90625 Z M 4.03125 -0.90625 "/></g></g></g><g fill="#5e17eb" fill-opacity="1"><g transform="translate(190.224013, 250.993798)"><g><path d="M 3.53125 -0.90625 C 3.976562 -0.90625 4.410156 -1.054688 4.828125 -1.359375 L 5.375 -0.46875 C 5.09375 -0.28125 4.785156 -0.132812 4.453125 -0.03125 C 4.128906 0.0703125 3.8125 0.125 3.5 0.125 C 2.914062 0.125 2.398438 0.00390625 1.953125 -0.234375 C 1.515625 -0.484375 1.175781 -0.820312 0.9375 -1.25 C 0.695312 -1.675781 0.578125 -2.160156 0.578125 -2.703125 C 0.578125 -3.222656 0.707031 -3.695312 0.96875 -4.125 C 1.226562 -4.5625 1.582031 -4.90625 2.03125 -5.15625 C 2.488281 -5.40625 2.988281 -5.53125 3.53125 -5.53125 C 4.226562 -5.53125 4.804688 -5.328125 5.265625 -4.921875 C 5.734375 -4.515625 6.054688 -3.945312 6.234375 -3.21875 L 2.015625 -1.75 C 2.171875 -1.476562 2.378906 -1.269531 2.640625 -1.125 C 2.898438 -0.976562 3.195312 -0.90625 3.53125 -0.90625 Z M 3.4375 -4.578125 C 2.945312 -4.578125 2.546875 -4.40625 2.234375 -4.0625 C 1.921875 -3.726562 1.765625 -3.296875 1.765625 -2.765625 C 1.765625 -2.628906 1.765625 -2.53125 1.765625 -2.46875 L 4.875 -3.609375 C 4.738281 -3.898438 4.550781 -4.132812 4.3125 -4.3125 C 4.082031 -4.488281 3.789062 -4.578125 3.4375 -4.578125 Z M 4.34375 -6.234375 L 3.578125 -6.234375 L 4.640625 -7.96875 L 5.984375 -7.96875 Z M 4.34375 -6.234375 "/></g></g></g><g fill="#5e17eb" fill-opacity="1"><g transform="translate(196.601278, 250.993798)"><g><path d="M 7.859375 -5.53125 C 8.367188 -5.53125 8.773438 -5.382812 9.078125 -5.09375 C 9.390625 -4.800781 9.550781 -4.414062 9.5625 -3.9375 L 9.5625 0 L 8.375 0 L 8.375 -3.5 C 8.34375 -4.125 8.0625 -4.457031 7.53125 -4.5 C 7.21875 -4.5 6.9375 -4.40625 6.6875 -4.21875 C 6.445312 -4.03125 6.257812 -3.785156 6.125 -3.484375 C 5.988281 -3.191406 5.914062 -2.875 5.90625 -2.53125 L 5.90625 0 L 4.703125 0 L 4.703125 -3.5 C 4.671875 -4.125 4.378906 -4.457031 3.828125 -4.5 C 3.523438 -4.5 3.25 -4.40625 3 -4.21875 C 2.757812 -4.03125 2.570312 -3.785156 2.4375 -3.484375 C 2.300781 -3.179688 2.234375 -2.859375 2.234375 -2.515625 L 2.234375 0 L 1.046875 0 L 1.046875 -5.3125 L 2.125 -5.3125 L 2.203125 -4.3125 C 2.410156 -4.695312 2.691406 -4.992188 3.046875 -5.203125 C 3.398438 -5.421875 3.804688 -5.53125 4.265625 -5.53125 C 4.691406 -5.53125 5.050781 -5.429688 5.34375 -5.234375 C 5.632812 -5.035156 5.820312 -4.757812 5.90625 -4.40625 C 6.125 -4.757812 6.40625 -5.035156 6.75 -5.234375 C 7.09375 -5.429688 7.460938 -5.53125 7.859375 -5.53125 Z M 7.859375 -5.53125 "/></g></g></g><g fill="#5e17eb" fill-opacity="1"><g transform="translate(206.892326, 250.993798)"><g/></g></g><g fill="#5e17eb" fill-opacity="1"><g transform="translate(210.651859, 250.993798)"><g><path d="M 3.53125 -0.90625 C 3.976562 -0.90625 4.410156 -1.054688 4.828125 -1.359375 L 5.375 -0.46875 C 5.09375 -0.28125 4.785156 -0.132812 4.453125 -0.03125 C 4.128906 0.0703125 3.8125 0.125 3.5 0.125 C 2.914062 0.125 2.398438 0.00390625 1.953125 -0.234375 C 1.515625 -0.484375 1.175781 -0.820312 0.9375 -1.25 C 0.695312 -1.675781 0.578125 -2.160156 0.578125 -2.703125 C 0.578125 -3.222656 0.707031 -3.695312 0.96875 -4.125 C 1.226562 -4.5625 1.582031 -4.90625 2.03125 -5.15625 C 2.488281 -5.40625 2.988281 -5.53125 3.53125 -5.53125 C 4.226562 -5.53125 4.804688 -5.328125 5.265625 -4.921875 C 5.734375 -4.515625 6.054688 -3.945312 6.234375 -3.21875 L 2.015625 -1.75 C 2.171875 -1.476562 2.378906 -1.269531 2.640625 -1.125 C 2.898438 -0.976562 3.195312 -0.90625 3.53125 -0.90625 Z M 3.4375 -4.578125 C 2.945312 -4.578125 2.546875 -4.40625 2.234375 -4.0625 C 1.921875 -3.726562 1.765625 -3.296875 1.765625 -2.765625 C 1.765625 -2.628906 1.765625 -2.53125 1.765625 -2.46875 L 4.875 -3.609375 C 4.738281 -3.898438 4.550781 -4.132812 4.3125 -4.3125 C 4.082031 -4.488281 3.789062 -4.578125 3.4375 -4.578125 Z M 4.34375 -6.234375 L 3.578125 -6.234375 L 4.640625 -7.96875 L 5.984375 -7.96875 Z M 4.34375 -6.234375 "/></g></g></g><g fill="#5e17eb" fill-opacity="1"><g transform="translate(217.029124, 250.993798)"><g/></g></g><g fill="#5e17eb" fill-opacity="1"><g transform="translate(220.788657, 250.993798)"><g><path d="M 6.59375 -9.953125 L 6.59375 0 L 5.375 0 L 5.375 -0.828125 C 5.125 -0.535156 4.8125 -0.300781 4.4375 -0.125 C 4.0625 0.0390625 3.65625 0.125 3.21875 0.125 C 2.71875 0.125 2.265625 0.00390625 1.859375 -0.234375 C 1.460938 -0.472656 1.148438 -0.804688 0.921875 -1.234375 C 0.691406 -1.671875 0.578125 -2.171875 0.578125 -2.734375 C 0.578125 -3.304688 0.695312 -3.804688 0.9375 -4.234375 C 1.175781 -4.660156 1.503906 -4.984375 1.921875 -5.203125 C 2.347656 -5.421875 2.828125 -5.53125 3.359375 -5.53125 C 3.753906 -5.53125 4.140625 -5.445312 4.515625 -5.28125 C 4.890625 -5.113281 5.179688 -4.882812 5.390625 -4.59375 L 5.390625 -9.953125 Z M 3.578125 -0.90625 C 4.046875 -0.90625 4.4375 -1.023438 4.75 -1.265625 C 5.070312 -1.515625 5.28125 -1.847656 5.375 -2.265625 L 5.375 -3.28125 C 5.28125 -3.664062 5.0625 -3.976562 4.71875 -4.21875 C 4.382812 -4.457031 4.003906 -4.578125 3.578125 -4.578125 C 3.253906 -4.578125 2.953125 -4.5 2.671875 -4.34375 C 2.398438 -4.1875 2.179688 -3.96875 2.015625 -3.6875 C 1.859375 -3.414062 1.78125 -3.101562 1.78125 -2.75 C 1.78125 -2.40625 1.859375 -2.09375 2.015625 -1.8125 C 2.179688 -1.53125 2.398438 -1.304688 2.671875 -1.140625 C 2.953125 -0.984375 3.253906 -0.90625 3.578125 -0.90625 Z M 3.578125 -0.90625 "/></g></g></g><g fill="#5e17eb" fill-opacity="1"><g transform="translate(228.102667, 250.993798)"><g><path d="M 2.234375 -5.3125 L 2.234375 0 L 1.046875 0 L 1.046875 -5.3125 Z M 0.671875 -7.328125 C 0.671875 -7.515625 0.742188 -7.671875 0.890625 -7.796875 C 1.035156 -7.929688 1.203125 -8 1.390625 -8 C 1.578125 -8 1.738281 -7.929688 1.875 -7.796875 C 2.019531 -7.671875 2.09375 -7.515625 2.09375 -7.328125 C 2.09375 -7.140625 2.019531 -6.984375 1.875 -6.859375 C 1.738281 -6.734375 1.578125 -6.671875 1.390625 -6.671875 C 1.203125 -6.671875 1.035156 -6.734375 0.890625 -6.859375 C 0.742188 -6.984375 0.671875 -7.140625 0.671875 -7.328125 Z M 0.671875 -7.328125 "/></g></g></g><g fill="#5e17eb" fill-opacity="1"><g transform="translate(231.079447, 250.993798)"><g><path d="M 6.09375 -5.3125 L 3.265625 0.15625 L 3.203125 0.15625 L 0.25 -5.3125 L 1.671875 -5.3125 L 3.28125 -1.921875 L 4.765625 -5.3125 Z M 6.09375 -5.3125 "/></g></g></g><g fill="#5e17eb" fill-opacity="1"><g transform="translate(237.123083, 250.993798)"><g><path d="M 3.53125 -0.90625 C 3.976562 -0.90625 4.410156 -1.054688 4.828125 -1.359375 L 5.375 -0.46875 C 5.09375 -0.28125 4.785156 -0.132812 4.453125 -0.03125 C 4.128906 0.0703125 3.8125 0.125 3.5 0.125 C 2.914062 0.125 2.398438 0.00390625 1.953125 -0.234375 C 1.515625 -0.484375 1.175781 -0.820312 0.9375 -1.25 C 0.695312 -1.675781 0.578125 -2.160156 0.578125 -2.703125 C 0.578125 -3.222656 0.707031 -3.695312 0.96875 -4.125 C 1.226562 -4.5625 1.582031 -4.90625 2.03125 -5.15625 C 2.488281 -5.40625 2.988281 -5.53125 3.53125 -5.53125 C 4.226562 -5.53125 4.804688 -5.328125 5.265625 -4.921875 C 5.734375 -4.515625 6.054688 -3.945312 6.234375 -3.21875 L 2.015625 -1.75 C 2.171875 -1.476562 2.378906 -1.269531 2.640625 -1.125 C 2.898438 -0.976562 3.195312 -0.90625 3.53125 -0.90625 Z M 3.4375 -4.578125 C 2.945312 -4.578125 2.546875 -4.40625 2.234375 -4.0625 C 1.921875 -3.726562 1.765625 -3.296875 1.765625 -2.765625 C 1.765625 -2.628906 1.765625 -2.53125 1.765625 -2.46875 L 4.875 -3.609375 C 4.738281 -3.898438 4.550781 -4.132812 4.3125 -4.3125 C 4.082031 -4.488281 3.789062 -4.578125 3.4375 -4.578125 Z M 3.4375 -4.578125 "/></g></g></g><g fill="#5e17eb" fill-opacity="1"><g transform="translate(243.500348, 250.993798)"><g><path d="M 2.203125 -4.0625 C 2.335938 -4.351562 2.53125 -4.609375 2.78125 -4.828125 C 3.03125 -5.046875 3.296875 -5.210938 3.578125 -5.328125 C 3.859375 -5.453125 4.109375 -5.519531 4.328125 -5.53125 L 4.28125 -4.34375 C 3.894531 -4.351562 3.546875 -4.273438 3.234375 -4.109375 C 2.921875 -3.941406 2.675781 -3.703125 2.5 -3.390625 C 2.320312 -3.085938 2.234375 -2.765625 2.234375 -2.421875 L 2.234375 0 L 1.046875 0 L 1.046875 -5.3125 L 2.109375 -5.3125 Z M 2.203125 -4.0625 "/></g></g></g><g fill="#5e17eb" fill-opacity="1"><g transform="translate(248.029805, 250.993798)"><g><path d="M 2.765625 -7.65625 L 2.765625 -5.296875 L 4.21875 -5.296875 L 4.21875 -4.359375 L 2.765625 -4.359375 L 2.765625 0 L 1.546875 0 L 1.546875 -4.359375 L 0.578125 -4.359375 L 0.578125 -5.296875 L 1.546875 -5.296875 L 1.546875 -7.65625 Z M 2.765625 -7.65625 "/></g></g></g><g fill="#5e17eb" fill-opacity="1"><g transform="translate(252.353943, 250.993798)"><g><path d="M 2.234375 -5.3125 L 2.234375 0 L 1.046875 0 L 1.046875 -5.3125 Z M 0.671875 -7.328125 C 0.671875 -7.515625 0.742188 -7.671875 0.890625 -7.796875 C 1.035156 -7.929688 1.203125 -8 1.390625 -8 C 1.578125 -8 1.738281 -7.929688 1.875 -7.796875 C 2.019531 -7.671875 2.09375 -7.515625 2.09375 -7.328125 C 2.09375 -7.140625 2.019531 -6.984375 1.875 -6.859375 C 1.738281 -6.734375 1.578125 -6.671875 1.390625 -6.671875 C 1.203125 -6.671875 1.035156 -6.734375 0.890625 -6.859375 C 0.742188 -6.984375 0.671875 -7.140625 0.671875 -7.328125 Z M 0.671875 -7.328125 "/></g></g></g><g fill="#5e17eb" fill-opacity="1"><g transform="translate(255.330723, 250.993798)"><g><path d="M 6.59375 -9.953125 L 6.59375 0 L 5.375 0 L 5.375 -0.828125 C 5.125 -0.535156 4.8125 -0.300781 4.4375 -0.125 C 4.0625 0.0390625 3.65625 0.125 3.21875 0.125 C 2.71875 0.125 2.265625 0.00390625 1.859375 -0.234375 C 1.460938 -0.472656 1.148438 -0.804688 0.921875 -1.234375 C 0.691406 -1.671875 0.578125 -2.171875 0.578125 -2.734375 C 0.578125 -3.304688 0.695312 -3.804688 0.9375 -4.234375 C 1.175781 -4.660156 1.503906 -4.984375 1.921875 -5.203125 C 2.347656 -5.421875 2.828125 -5.53125 3.359375 -5.53125 C 3.753906 -5.53125 4.140625 -5.445312 4.515625 -5.28125 C 4.890625 -5.113281 5.179688 -4.882812 5.390625 -4.59375 L 5.390625 -9.953125 Z M 3.578125 -0.90625 C 4.046875 -0.90625 4.4375 -1.023438 4.75 -1.265625 C 5.070312 -1.515625 5.28125 -1.847656 5.375 -2.265625 L 5.375 -3.28125 C 5.28125 -3.664062 5.0625 -3.976562 4.71875 -4.21875 C 4.382812 -4.457031 4.003906 -4.578125 3.578125 -4.578125 C 3.253906 -4.578125 2.953125 -4.5 2.671875 -4.34375 C 2.398438 -4.1875 2.179688 -3.96875 2.015625 -3.6875 C 1.859375 -3.414062 1.78125 -3.101562 1.78125 -2.75 C 1.78125 -2.40625 1.859375 -2.09375 2.015625 -1.8125 C 2.179688 -1.53125 2.398438 -1.304688 2.671875 -1.140625 C 2.953125 -0.984375 3.253906 -0.90625 3.578125 -0.90625 Z M 3.578125 -0.90625 "/></g></g></g><g fill="#5e17eb" fill-opacity="1"><g transform="translate(262.644733, 250.993798)"><g><path d="M 0.578125 -2.703125 C 0.578125 -3.234375 0.703125 -3.710938 0.953125 -4.140625 C 1.203125 -4.578125 1.550781 -4.914062 2 -5.15625 C 2.457031 -5.40625 2.96875 -5.53125 3.53125 -5.53125 C 4.09375 -5.53125 4.59375 -5.40625 5.03125 -5.15625 C 5.476562 -4.914062 5.820312 -4.578125 6.0625 -4.140625 C 6.3125 -3.710938 6.4375 -3.234375 6.4375 -2.703125 C 6.4375 -2.171875 6.3125 -1.6875 6.0625 -1.25 C 5.820312 -0.820312 5.476562 -0.484375 5.03125 -0.234375 C 4.582031 0.00390625 4.070312 0.125 3.5 0.125 C 2.945312 0.125 2.445312 0.0078125 2 -0.21875 C 1.550781 -0.457031 1.203125 -0.789062 0.953125 -1.21875 C 0.703125 -1.644531 0.578125 -2.140625 0.578125 -2.703125 Z M 1.78125 -2.703125 C 1.78125 -2.367188 1.851562 -2.054688 2 -1.765625 C 2.15625 -1.484375 2.363281 -1.257812 2.625 -1.09375 C 2.882812 -0.9375 3.175781 -0.859375 3.5 -0.859375 C 3.988281 -0.859375 4.394531 -1.03125 4.71875 -1.375 C 5.050781 -1.726562 5.21875 -2.171875 5.21875 -2.703125 C 5.21875 -3.222656 5.050781 -3.660156 4.71875 -4.015625 C 4.394531 -4.367188 3.988281 -4.546875 3.5 -4.546875 C 3.164062 -4.546875 2.867188 -4.460938 2.609375 -4.296875 C 2.359375 -4.128906 2.15625 -3.90625 2 -3.625 C 1.851562 -3.34375 1.78125 -3.035156 1.78125 -2.703125 Z M 1.78125 -2.703125 "/></g></g></g><g clip-path="url(#id2)"><path fill="#ffd51e" d="M 166.222656 180.71875 C 166.222656 181.195312 165.839844 181.582031 165.367188 181.582031 L 155.945312 181.582031 C 155.472656 181.582031 155.089844 181.195312 155.089844 180.71875 L 155.089844 177.269531 C 155.089844 176.792969 155.472656 176.40625 155.945312 176.40625 L 157.230469 176.40625 C 157.9375 176.40625 158.515625 175.828125 158.515625 175.113281 C 158.515625 174.398438 157.9375 173.820312 157.230469 173.820312 L 155.945312 173.820312 C 155.472656 173.820312 155.089844 173.433594 155.089844 172.957031 L 155.089844 169.507812 C 155.089844 169.03125 155.472656 168.644531 155.945312 168.644531 L 158.515625 168.644531 L 158.515625 167.78125 C 158.515625 166.351562 159.667969 165.191406 161.089844 165.191406 C 161.261719 165.191406 161.429688 165.210938 161.597656 165.246094 C 162.816406 165.523438 163.675781 166.625 163.652344 167.882812 L 163.652344 168.644531 L 166.222656 168.644531 Z M 176.929688 169.507812 L 178.214844 169.507812 C 178.6875 169.507812 179.070312 169.121094 179.070312 168.644531 L 179.070312 165.195312 C 179.070312 164.71875 178.6875 164.332031 178.214844 164.332031 L 168.792969 164.332031 C 168.320312 164.332031 167.933594 164.71875 167.933594 165.195312 L 167.933594 177.269531 L 170.503906 177.269531 L 170.503906 178.03125 C 170.484375 179.289062 171.339844 180.390625 172.558594 180.667969 C 173.953125 180.953125 175.3125 180.046875 175.59375 178.640625 C 175.625 178.472656 175.644531 178.304688 175.644531 178.132812 L 175.644531 177.269531 L 178.214844 177.269531 C 178.6875 177.269531 179.070312 176.882812 179.070312 176.40625 L 179.070312 172.957031 C 179.070312 172.480469 178.6875 172.09375 178.214844 172.09375 L 176.929688 172.09375 C 176.21875 172.09375 175.644531 171.515625 175.644531 170.800781 C 175.644531 170.085938 176.21875 169.507812 176.929688 169.507812 Z M 176.929688 169.507812 " fill-opacity="1" fill-rule="nonzero"/></g><g clip-path="url(#id3)"><path fill="#ffd51e" d="M 207.457031 112.511719 C 207.457031 112.988281 207.070312 113.375 206.597656 113.375 L 197.179688 113.375 C 196.703125 113.375 196.320312 112.988281 196.320312 112.511719 L 196.320312 109.0625 C 196.320312 108.585938 196.703125 108.199219 197.179688 108.199219 L 198.460938 108.199219 C 199.171875 108.199219 199.746094 107.621094 199.746094 106.90625 C 199.746094 106.191406 199.171875 105.609375 198.460938 105.609375 L 197.179688 105.609375 C 196.703125 105.609375 196.320312 105.226562 196.320312 104.75 L 196.320312 101.296875 C 196.320312 100.824219 196.703125 100.4375 197.179688 100.4375 L 199.746094 100.4375 L 199.746094 99.574219 C 199.75 98.140625 200.902344 96.984375 202.324219 96.984375 C 202.492188 96.984375 202.664062 97.003906 202.832031 97.035156 C 204.050781 97.3125 204.910156 98.417969 204.886719 99.675781 L 204.886719 100.4375 L 207.457031 100.4375 Z M 218.160156 101.296875 L 219.445312 101.296875 C 219.917969 101.296875 220.300781 100.914062 220.300781 100.4375 L 220.300781 96.984375 C 220.300781 96.511719 219.917969 96.125 219.445312 96.125 L 210.023438 96.125 C 209.550781 96.125 209.167969 96.511719 209.167969 96.984375 L 209.167969 109.0625 L 211.738281 109.0625 L 211.738281 109.820312 C 211.714844 111.082031 212.574219 112.183594 213.792969 112.460938 C 215.1875 112.746094 216.542969 111.835938 216.824219 110.433594 C 216.859375 110.265625 216.875 110.09375 216.875 109.921875 L 216.875 109.0625 L 219.445312 109.0625 C 219.917969 109.0625 220.300781 108.675781 220.300781 108.199219 L 220.300781 104.75 C 220.300781 104.273438 219.917969 103.886719 219.445312 103.886719 L 218.160156 103.886719 C 217.453125 103.886719 216.875 103.308594 216.875 102.59375 C 216.875 101.878906 217.453125 101.296875 218.160156 101.296875 Z M 218.160156 101.296875 " fill-opacity="1" fill-rule="nonzero"/></g></svg>